<?xml version="1.0" standalone="no"?>
<!DOCTYPE svg PUBLIC "-//W3C//DTD SVG 20010904//EN"
 "http://www.w3.org/TR/2001/REC-SVG-20010904/DTD/svg10.dtd">
<svg version="1.0" xmlns="http://www.w3.org/2000/svg"
 width="600.000000pt" height="406.000000pt" viewBox="0 0 600.000000 406.000000"
 preserveAspectRatio="xMidYMid meet">

<g transform="translate(0.000000,406.000000) scale(0.100000,-0.100000)"
fill="#000000" stroke="none">
<path d="M3560 4049 c0 -5 5 -7 10 -4 6 3 10 8 10 11 0 2 -4 4 -10 4 -5 0 -10
-5 -10 -11z"/>
<path d="M3635 4050 c4 -6 11 -8 16 -5 14 9 11 15 -7 15 -8 0 -12 -5 -9 -10z"/>
<path d="M3850 4050 c0 -5 6 -10 14 -10 16 0 41 -54 33 -72 -2 -7 -1 -36 3
-63 5 -28 4 -54 -1 -60 -5 -5 -9 -17 -9 -26 0 -9 -10 -23 -22 -32 -19 -12 -23
-24 -23 -68 0 -48 -2 -54 -20 -51 -14 2 -16 0 -7 -6 10 -6 11 -19 4 -50 -5
-22 -7 -51 -5 -65 3 -14 -2 -30 -11 -40 -9 -8 -16 -23 -16 -31 0 -9 -6 -16
-12 -16 -10 0 -10 -2 0 -8 17 -11 4 -42 -14 -35 -11 4 -14 -5 -14 -35 0 -23 4
-52 10 -66 11 -30 -1 -34 -25 -10 -21 21 -33 9 -16 -17 11 -19 10 -20 -9 -14
-20 6 -21 4 -14 -17 4 -12 7 -39 6 -60 -3 -44 28 -100 63 -116 14 -6 26 -17
26 -24 5 -42 3 -128 -2 -128 -9 0 -29 -73 -29 -104 0 -19 -4 -26 -12 -22 -7 3
-21 9 -30 12 -9 3 -22 19 -28 35 -16 37 -28 37 -41 1 -5 -15 -23 -36 -39 -46
-17 -9 -30 -21 -30 -26 0 -4 -3 -15 -6 -24 -3 -9 -1 -16 5 -16 6 0 16 11 20
24 5 13 18 27 28 31 28 12 58 10 55 -4 -2 -9 4 -12 16 -9 15 4 18 1 15 -11 -3
-11 4 -22 19 -28 21 -11 20 -12 -17 -13 -39 -2 -40 -2 -9 -9 17 -4 36 -11 42
-15 19 -11 1 -36 -26 -36 -24 0 -25 -1 -7 -14 21 -15 55 -10 52 8 -1 6 12 12
30 14 23 2 32 -1 36 -15 4 -17 5 -17 6 0 2 32 31 -8 37 -50 4 -26 3 -34 -4
-24 -14 20 -55 -23 -47 -49 4 -13 -2 -28 -19 -45 -31 -31 -31 -33 -8 -31 14 1
17 -7 17 -42 0 -27 5 -46 15 -52 13 -8 13 -10 -1 -10 -9 0 -22 7 -30 16 -7 9
-22 14 -36 11 -18 -3 -21 -1 -13 8 8 9 8 15 1 20 -6 3 -13 -6 -17 -20 -5 -22
-12 -25 -48 -25 -33 -1 -37 -3 -24 -11 17 -9 17 -12 -2 -49 -11 -22 -20 -48
-20 -59 0 -30 -11 -51 -27 -51 -8 0 -12 4 -9 8 2 4 0 14 -5 22 -7 12 -15 8
-41 -22 l-33 -37 -40 20 c-22 11 -49 28 -60 39 -19 20 -19 20 25 21 25 1 48 1
53 0 4 0 7 3 7 9 0 5 -25 10 -55 10 -31 0 -55 4 -55 10 0 6 10 10 23 9 12 -1
39 -1 61 -1 29 2 36 5 28 15 -6 7 -6 21 -1 34 7 21 13 22 55 16 34 -4 45 -3
40 5 -4 7 -20 12 -35 12 -34 0 -58 24 -44 43 6 6 13 33 15 60 4 35 2 47 -8 47
-8 0 -13 -8 -12 -17 2 -10 -1 -44 -5 -76 l-9 -58 -45 2 c-34 2 -47 -1 -54 -14
-6 -9 -17 -17 -26 -17 -14 0 -14 2 2 14 16 11 19 27 20 90 1 42 -3 82 -7 89
-4 7 -8 -4 -8 -27 0 -33 -3 -38 -20 -33 -13 3 -21 -1 -26 -15 -3 -11 -12 -17
-20 -14 -16 6 -19 -10 -4 -19 20 -12 9 -33 -20 -38 -16 -4 -30 -12 -30 -20 0
-7 -13 -24 -30 -37 -16 -14 -29 -31 -30 -37 0 -7 -9 -13 -21 -13 -12 0 -23 -8
-26 -20 -3 -11 -11 -20 -18 -20 -15 0 -35 -43 -35 -74 0 -23 -22 -51 -32 -40
-8 7 -20 -45 -13 -56 4 -6 1 -10 -4 -10 -6 0 -11 6 -11 13 0 8 -11 12 -27 11
-39 -3 -40 -3 -23 -14 12 -8 10 -10 -11 -10 -15 0 -34 10 -47 25 -26 30 -42
32 -35 5 4 -14 0 -20 -11 -20 -9 0 -16 7 -16 16 0 9 -5 12 -12 8 -7 -4 -8 -3
-4 5 4 6 -2 27 -14 46 -18 30 -27 35 -58 35 -38 0 -102 -32 -102 -50 0 -5 -6
-10 -14 -10 -16 0 -36 -50 -36 -91 0 -15 -4 -30 -10 -34 -5 -3 -7 -11 -4 -18
2 -7 -14 -32 -36 -55 -37 -39 -45 -53 -41 -74 0 -5 -6 -8 -14 -8 -8 0 -15 -7
-15 -15 0 -16 -4 -17 -66 -20 -27 -1 -52 -10 -76 -28 -20 -15 -40 -27 -44 -26
-21 4 -28 -2 -14 -11 12 -8 9 -10 -12 -10 -16 0 -28 -4 -28 -10 0 -5 -7 -7
-15 -4 -8 4 -15 1 -15 -5 0 -6 -4 -11 -10 -11 -14 0 -37 52 -33 72 3 9 -5 21
-16 28 -12 6 -21 16 -21 23 0 18 -24 67 -32 67 -5 0 -8 11 -8 25 0 14 -5 25
-12 25 -6 0 -4 6 5 13 10 6 19 21 21 32 2 11 7 32 11 48 4 15 3 27 -3 27 -5 0
-3 31 6 75 15 68 15 77 0 108 -19 39 -65 65 -123 67 -59 3 -67 1 -59 -12 5 -7
3 -8 -5 -3 -23 14 -85 -25 -121 -75 -19 -27 -38 -50 -42 -50 -5 0 -8 -10 -8
-22 0 -13 -7 -36 -15 -52 -8 -15 -15 -38 -15 -50 0 -17 -2 -18 -10 -6 -8 13
-10 12 -10 -3 0 -10 -5 -28 -11 -39 -9 -17 -13 -18 -20 -7 -8 12 -10 12 -18 1
-14 -22 -45 -9 -59 23 -27 63 -38 80 -52 80 -11 0 -15 -12 -15 -41 0 -36 -3
-41 -20 -38 -10 2 -22 -1 -26 -7 -3 -6 -6 6 -5 25 1 41 17 53 23 17 5 -37 13
-39 13 -3 0 51 -47 134 -51 90 -1 -7 -7 14 -14 47 -7 33 -10 61 -5 63 5 2 6
11 3 19 -5 12 -2 15 10 10 9 -3 17 -2 17 3 0 6 7 10 16 10 9 0 12 5 8 12 -4 7
-3 8 5 4 14 -9 53 2 46 14 -3 4 4 6 15 3 15 -4 20 0 20 16 0 11 5 21 10 21 6
0 10 -8 10 -17 0 -12 3 -14 11 -6 14 14 -3 78 -22 78 -8 0 -13 9 -12 22 2 14
-8 30 -24 43 -23 18 -36 20 -85 15 -54 -5 -77 5 -45 19 9 5 9 7 0 12 -7 3 -13
15 -13 27 0 22 -33 81 -41 73 -2 -2 -5 33 -6 79 -2 68 0 86 13 93 10 6 14 19
12 37 l-3 29 -35 -32 c-19 -18 -42 -32 -52 -32 -10 0 -21 0 -25 -1 -5 0 -9 6
-11 13 -2 9 7 14 25 13 37 -1 49 17 45 65 -5 45 -16 49 -48 19 l-23 -22 4 68
c2 38 8 71 14 74 18 12 24 58 7 64 -24 10 -58 -31 -45 -54 5 -11 6 -19 2 -20
-4 0 -19 -2 -33 -5 -21 -3 -22 -2 -7 7 17 10 24 49 9 49 -7 0 -32 -57 -32 -73
0 -4 13 -7 29 -7 33 0 44 -20 35 -60 -3 -14 -6 -45 -5 -70 l0 -45 -19 23 c-18
21 -18 27 -6 57 13 31 13 33 -10 44 -23 10 -24 9 -14 -9 8 -16 8 -18 -4 -14
-22 8 -30 -15 -12 -35 23 -25 20 -32 -10 -21 -36 14 -42 13 -69 -15 -32 -31
-31 -41 0 -47 20 -4 26 -1 31 18 7 26 12 28 34 14 9 -5 19 -5 27 2 13 10 17 0
16 -39 0 -6 7 -9 16 -6 9 4 13 2 8 -2 -4 -5 0 -20 10 -34 9 -14 15 -42 15 -62
-1 -21 3 -41 8 -44 6 -3 10 -11 10 -18 0 -21 -26 16 -44 61 -9 24 -14 48 -11
53 4 5 3 14 -1 20 -5 8 -9 8 -14 -1 -5 -9 -13 -1 -25 24 -17 36 -35 48 -35 24
0 -7 13 -38 30 -68 34 -64 38 -103 11 -122 -11 -8 -27 -33 -36 -56 -16 -38
-35 -56 -35 -32 0 6 5 10 10 10 21 0 9 18 -15 22 -17 4 -25 1 -25 -9 0 -7 -7
-16 -15 -19 -9 -4 -15 -19 -15 -35 0 -32 11 -37 30 -14 7 8 16 15 21 15 10 0
-9 -48 -28 -71 -20 -24 -16 -45 12 -63 30 -20 49 -21 42 -2 -4 10 -1 13 9 9
17 -6 19 13 2 21 -7 2 -2 4 12 3 26 -2 49 -23 50 -46 0 -11 -3 -11 -14 -2 -20
16 -56 -3 -56 -29 0 -10 -9 -22 -20 -25 -11 -4 -18 -10 -15 -14 2 -5 -7 -19
-20 -31 -19 -18 -25 -34 -25 -67 0 -38 -11 -56 -23 -35 -2 4 -2 1 0 -7 2 -8 0
-17 -5 -20 -11 -7 -21 -141 -12 -141 4 0 7 -20 7 -45 0 -38 -3 -45 -20 -45
-16 0 -17 -3 -7 -15 13 -15 4 -19 -40 -16 -11 0 -11 -1 -2 -5 10 -5 10 -10 -4
-25 -9 -10 -22 -16 -28 -12 -6 3 -8 3 -4 -2 9 -10 -67 -85 -117 -114 -22 -13
-45 -30 -51 -37 -7 -9 -21 -10 -47 -4 -20 4 -37 4 -37 0 0 -4 -15 -10 -34 -12
-19 -2 -34 0 -33 5 1 6 -11 13 -26 18 -33 9 -57 27 -57 43 0 6 5 4 10 -4 8
-12 10 -11 10 8 0 15 -10 29 -30 40 -17 9 -28 23 -25 30 2 7 -4 12 -14 12 -33
0 -51 11 -51 31 0 10 4 19 9 19 5 0 7 9 4 19 -5 20 -43 37 -43 19 0 -5 -5 -6
-11 -2 -6 3 -8 17 -5 30 9 33 -8 30 -34 -6 -18 -25 -25 -28 -36 -19 -11 9 -16
6 -23 -12 l-10 -24 0 27 c-1 14 5 29 12 31 22 9 -16 28 -43 21 -33 -8 -36 -12
-23 -33 10 -16 8 -18 -10 -17 -16 1 -22 8 -23 26 -1 49 -4 60 -15 60 -7 0 -9
-10 -7 -25 3 -16 1 -25 -7 -25 -7 0 -16 16 -19 35 -8 42 -32 38 -45 -9 -7 -28
-8 -26 -9 23 -1 62 -6 70 -32 53 -11 -7 -27 -12 -35 -12 -16 0 -21 -16 -6 -22
16 -6 17 -53 1 -54 -8 -1 -21 -2 -27 -3 -15 -1 -18 -31 -3 -31 6 0 10 -7 10
-15 0 -8 -6 -14 -13 -12 -6 1 -12 -5 -12 -13 0 -8 6 -14 13 -13 6 2 12 -6 12
-17 0 -11 -6 -20 -13 -20 -9 0 -13 -26 -15 -90 l-3 -90 118 -2 c333 -3 403 -2
403 5 0 4 7 7 15 7 14 0 19 11 16 37 -1 8 5 10 14 7 18 -7 19 -16 3 -32 -18
-18 12 -23 164 -31 11 -1 1 -17 -35 -56 -29 -30 -53 -50 -55 -45 -5 13 -39 13
-47 -1 -4 -6 -13 -8 -20 -5 -17 6 -39 -19 -32 -38 3 -7 -2 -24 -10 -36 -9 -13
-16 -36 -15 -53 1 -40 -91 -170 -96 -136 -2 11 4 37 13 56 23 48 30 105 17
142 -8 22 -7 31 1 34 9 3 9 8 1 17 -9 9 -17 8 -36 -4 -26 -17 -40 -13 -31 10
3 8 0 14 -6 14 -6 0 -11 -11 -11 -24 0 -13 -5 -26 -12 -28 -9 -3 -13 -50 -15
-166 -2 -139 0 -162 13 -162 8 0 12 -5 9 -10 -4 -6 -11 -8 -16 -5 -5 4 -9 0
-9 -8 0 -21 -69 -107 -85 -107 -17 0 -19 -9 -6 -29 7 -11 18 -7 52 23 24 20
49 34 56 32 7 -3 13 1 13 8 0 8 8 13 18 12 11 0 16 5 14 16 -1 9 6 19 16 22
11 4 24 18 30 31 10 22 18 26 60 25 4 0 7 -8 7 -18 0 -10 9 -18 23 -20 16 -3
22 -10 22 -28 0 -17 5 -24 20 -24 11 0 23 0 28 -1 4 0 9 8 11 17 2 10 11 25
21 33 28 25 33 64 9 84 -12 10 -17 23 -12 30 4 6 27 40 50 73 24 34 43 67 43
73 0 6 6 11 14 11 8 0 13 7 12 16 0 9 7 18 17 19 26 5 21 -25 -10 -57 -25 -26
-26 -30 -15 -66 18 -58 15 -89 -9 -106 -16 -11 -19 -20 -14 -33 5 -10 8 -21 7
-25 -1 -4 7 -10 18 -13 12 -4 20 -15 20 -29 0 -17 6 -22 27 -21 23 0 32 8 50
45 13 25 23 51 23 58 0 37 63 -20 75 -70 5 -21 2 -26 -17 -32 -36 -9 -40 -7
-32 16 6 20 5 21 -10 9 -9 -7 -16 -25 -16 -40 0 -19 3 -22 9 -12 6 8 19 12 35
9 15 -3 29 -2 31 2 3 4 24 4 47 -1 67 -13 80 -11 76 9 -2 12 -13 17 -37 17
-28 0 -34 4 -36 23 -1 13 6 27 16 33 21 11 22 60 2 98 -18 36 -16 68 6 105 10
17 22 42 26 56 10 37 29 80 35 80 3 0 6 -20 7 -44 1 -25 11 -72 24 -106 l22
-61 -21 -29 c-26 -35 -27 -64 -3 -105 19 -32 47 -43 64 -26 8 8 6 11 -6 11 -9
0 -17 5 -17 10 0 6 7 10 15 10 13 0 15 13 14 74 -2 77 7 109 22 85 9 -15 10
-10 11 106 1 36 5 65 11 65 5 0 4 6 -2 14 -6 7 -8 21 -5 30 5 14 18 16 68 14
l61 -3 -4 -207 c-3 -204 -3 -207 17 -201 11 3 23 12 27 21 5 14 7 14 15 2 8
-13 10 -12 10 3 0 9 4 17 9 17 5 0 8 15 7 32 -1 22 -7 34 -19 36 -23 5 -22 46
4 102 13 29 20 62 18 95 -3 76 -1 85 16 79 8 -4 15 -2 15 2 0 5 11 10 24 10
25 2 26 -14 3 -44 -13 -17 -2 -104 22 -172 21 -61 20 -70 -12 -70 -12 0 -29
-5 -37 -10 -11 -7 -7 -10 19 -10 32 0 33 -1 18 -18 -21 -23 -21 -39 -1 -59 12
-13 18 -13 24 -4 5 9 9 6 14 -11 l7 -23 9 23 c5 12 13 22 19 22 5 0 11 10 14
21 l6 21 30 -22 c17 -12 31 -29 31 -39 0 -9 5 -22 12 -29 9 -9 6 -13 -10 -19
-22 -8 -22 -8 -2 -21 17 -10 21 -10 26 3 7 18 45 20 61 4 6 -6 31 -13 55 -15
31 -3 49 -11 66 -30 24 -27 23 -51 -4 -89 -54 -76 -72 -110 -83 -162 -37 -176
-55 -241 -72 -269 -10 -17 -19 -41 -19 -53 0 -18 6 -21 43 -23 58 -2 58 -2 95
6 24 6 32 4 32 -7 0 -7 9 -22 20 -32 18 -16 24 -16 103 -2 86 16 161 51 154
71 -2 6 -29 12 -59 14 -54 3 -57 4 -71 39 -9 23 -11 48 -6 72 34 168 52 244
70 291 46 120 51 128 114 162 80 44 79 43 66 19 -13 -24 -9 -26 21 -10 21 11
21 10 14 -102 -4 -63 -12 -170 -18 -239 -15 -168 -15 -172 -1 -177 14 -5 18
25 34 242 18 254 32 333 63 360 16 14 34 21 46 18 12 -3 20 0 20 7 0 7 -7 10
-15 6 -23 -9 -18 3 16 35 35 33 44 35 53 14 8 -21 24 -19 31 5 3 11 13 20 21
20 8 0 14 7 14 15 0 8 -4 15 -10 15 -5 0 -10 6 -10 14 0 19 45 47 64 40 20 -8
20 -23 1 -30 -8 -4 -12 -10 -9 -15 3 -5 13 -5 24 1 26 14 30 13 30 -9 0 -11 5
-23 10 -26 6 -3 10 -17 10 -31 0 -18 -6 -24 -22 -25 -19 -1 -19 -2 -5 -6 13
-3 16 -10 12 -21 -10 -25 -22 -115 -30 -217 -13 -163 -15 -150 23 -147 18 2
40 -2 48 -9 28 -23 204 11 204 39 0 5 -20 12 -45 14 -66 8 -78 22 -70 82 3 27
17 88 31 134 13 46 24 95 24 108 0 13 5 24 11 24 5 0 8 4 4 9 -9 15 17 62 32
57 9 -4 13 5 13 29 0 24 6 37 20 45 17 9 19 19 15 83 -2 39 1 88 7 107 6 19
13 41 15 49 6 22 53 -36 54 -67 l1 -27 8 25 c8 25 8 25 9 -5 1 -27 3 -28 14
-13 17 22 36 9 39 -25 1 -15 6 -27 10 -27 4 0 8 -23 8 -50 0 -38 -5 -54 -20
-67 -23 -20 -27 -38 -6 -30 20 8 58 -92 61 -161 2 -50 5 -58 26 -65 14 -5 35
-4 51 2 l28 10 -27 53 c-25 49 -27 61 -25 153 2 55 7 104 11 108 10 10 41 -53
41 -85 0 -12 10 -39 22 -58 39 -62 58 -111 58 -154 1 -37 2 -39 14 -23 9 12
25 18 43 16 57 -4 123 1 123 11 0 5 -18 14 -40 20 -55 15 -101 58 -104 96 -2
17 -5 35 -8 40 -3 5 -4 18 -2 28 1 11 4 54 5 95 2 87 6 101 25 101 8 0 13 3
13 8 -4 26 4 32 49 33 46 1 46 1 13 9 -19 5 -40 6 -46 3 -20 -7 -25 38 -11
105 8 35 16 65 19 68 3 3 27 5 55 6 39 0 55 5 77 26 26 24 27 26 9 39 -10 7
-28 13 -41 13 -13 0 -23 5 -23 10 0 19 25 90 31 90 4 0 10 -19 14 -42 l7 -43
17 50 c17 47 18 48 29 28 7 -12 13 -39 13 -60 1 -39 3 -35 14 31 7 44 14 42
21 -6 3 -18 7 -39 9 -46 3 -7 -1 -22 -7 -32 -10 -15 -10 -22 0 -32 22 -22 13
-26 -48 -23 -33 1 -60 -1 -60 -5 0 -4 32 -8 71 -9 l70 -2 -1 68 c-2 80 11 163
25 166 6 1 11 -10 13 -25 4 -32 32 -39 32 -8 0 22 15 27 23 8 3 -7 6 -2 6 12
1 18 4 21 10 11 7 -11 11 -10 20 5 8 13 11 14 9 4 -1 -8 2 -26 7 -40 8 -21 11
-15 20 44 5 38 15 71 21 73 7 2 10 -6 6 -23 -3 -19 -1 -25 7 -20 6 4 9 12 6
17 -4 5 -1 9 4 9 6 0 11 -9 11 -20 0 -11 -5 -20 -11 -20 -5 0 -7 -5 -3 -11 3
-6 1 -14 -5 -18 -6 -4 -9 -15 -5 -24 3 -9 10 -14 15 -11 5 3 12 -2 15 -10 9
-23 26 -8 18 16 -5 17 -3 20 11 14 13 -4 16 -2 11 9 -3 8 0 14 6 12 7 -1 12 4
13 11 0 7 5 16 12 20 6 4 14 42 17 86 3 43 7 81 10 84 4 3 6 -1 6 -9 0 -12 2
-12 9 0 6 9 10 4 13 -19 3 -20 -1 -37 -9 -46 -13 -12 -12 -15 1 -20 8 -3 13
-11 10 -18 -3 -9 4 -11 25 -8 32 4 47 29 42 67 -2 16 0 18 10 7 16 -15 33 -16
24 -1 -8 12 4 143 12 136 3 -3 6 -23 9 -45 2 -21 8 -52 14 -68 9 -23 13 -25
20 -14 6 8 10 10 10 4 0 -14 -44 -44 -63 -44 -18 0 -42 -28 -33 -37 4 -4 16
-2 26 5 16 10 20 10 20 0 0 -7 7 -2 16 10 16 24 44 30 44 10 0 -8 12 -12 30
-12 17 1 46 2 66 3 54 2 30 21 -29 23 -38 1 -43 2 -18 5 33 4 33 5 12 19 -23
17 -28 40 -8 47 6 3 3 6 -8 6 -14 1 -25 12 -33 34 -12 33 -7 77 10 77 5 0 7
-9 3 -20 -3 -11 -2 -28 4 -37 9 -15 10 -11 11 18 0 20 7 42 15 49 13 10 15 9
15 -11 0 -19 -2 -21 -10 -9 -16 25 -12 -31 5 -60 14 -25 14 -25 15 -2 0 12 -6
22 -12 22 -7 0 -5 5 5 11 9 5 17 19 17 29 0 11 5 20 11 20 7 0 9 -9 5 -22 -3
-13 0 -40 6 -60 11 -38 4 -64 -11 -40 -6 10 -11 10 -21 -2 -17 -21 -6 -46 20
-46 12 0 18 -4 15 -10 -4 -6 6 -10 22 -10 26 1 27 1 9 15 -18 14 -18 26 -1 68
5 12 2 17 -11 18 -11 0 -14 3 -6 6 6 2 12 11 12 19 0 9 -4 12 -10 9 -5 -3 -10
-1 -10 4 0 6 5 11 10 11 6 0 10 8 10 18 0 13 2 14 9 4 4 -8 12 -13 17 -13 5 0
9 -35 8 -79 0 -81 6 -93 35 -66 14 13 16 12 17 -10 2 -19 -3 -24 -24 -24 -14
0 -22 -3 -19 -7 4 -3 77 -6 162 -5 118 1 155 -2 153 -11 -2 -7 8 -30 22 -51
16 -27 20 -41 12 -44 -7 -2 -12 -9 -12 -16 0 -7 -10 -22 -23 -34 -21 -20 -26
-20 -61 -8 -32 11 -35 14 -17 19 22 5 28 31 11 42 -6 4 -17 1 -25 -5 -8 -7
-15 -9 -15 -4 0 5 -5 1 -11 -8 -13 -23 -41 -23 -37 -1 2 10 -4 19 -14 21 -14
3 -16 -1 -11 -15 6 -17 5 -17 -14 -1 -24 22 -43 23 -43 3 0 -9 -6 -12 -15 -9
-9 4 -15 0 -15 -10 0 -9 7 -16 17 -16 15 0 15 -1 0 -18 -10 -10 -17 -29 -17
-43 0 -18 2 -21 10 -9 7 12 12 12 29 -4 27 -24 27 -39 1 -31 -12 4 -20 2 -20
-5 0 -6 5 -8 10 -5 6 3 10 -4 10 -17 0 -13 3 -33 6 -45 5 -17 1 -22 -18 -26
-18 -3 -16 -5 9 -6 17 0 34 -5 38 -10 6 -11 -30 -48 -57 -57 -19 -6 -26 -34
-8 -34 6 0 10 6 10 13 0 8 17 11 60 9 77 -5 79 -18 3 -16 -32 1 -49 0 -38 -3
34 -8 39 -22 6 -17 -30 5 -31 4 -19 -16 11 -17 11 -22 -2 -30 -13 -8 -12 -10
3 -10 14 0 17 -5 11 -22 -18 -58 -33 -68 -103 -70 l-66 -2 56 -3 c46 -3 58 -8
62 -23 3 -11 2 -20 -2 -20 -5 0 -9 -37 -10 -82 -1 -100 10 -98 14 4 l2 73 59
-4 c32 -2 70 -8 84 -14 22 -10 16 -12 -50 -17 l-75 -5 38 -14 c24 -8 65 -12
108 -9 l69 4 0 -42 c0 -25 -6 -47 -15 -54 -16 -13 -10 -34 6 -24 7 4 9 -7 7
-27 -2 -24 -10 -37 -28 -46 l-25 -13 23 0 c32 0 48 18 56 65 7 35 46 102 46
78 0 -6 9 -13 21 -16 12 -3 18 -10 14 -17 -4 -6 -1 -9 7 -8 7 2 18 12 25 23
11 18 12 18 13 2 0 -14 5 -17 23 -11 22 7 22 6 4 -14 -18 -20 -18 -20 2 -15
12 3 21 9 21 14 0 5 9 9 20 9 25 0 26 -18 3 -36 -15 -11 -9 -12 40 -8 68 5 76
-10 15 -26 -24 -6 -58 -15 -77 -20 -18 -5 -39 -17 -46 -26 -8 -12 -26 -18 -49
-18 -22 0 -36 -5 -36 -12 0 -7 -13 -21 -30 -30 -16 -10 -30 -27 -32 -38 -2
-13 -9 -20 -20 -18 -9 1 -19 -2 -23 -8 -3 -6 0 -7 9 -4 18 7 19 1 7 -42 -7
-24 -5 -38 8 -57 14 -23 32 -38 116 -102 10 -8 24 -15 30 -15 12 0 35 63 35
94 0 9 5 16 10 16 6 0 10 -6 10 -14 0 -8 16 -18 37 -23 31 -7 39 -14 47 -43 6
-19 17 -40 25 -46 13 -10 13 -14 2 -28 -8 -9 -11 -19 -8 -23 4 -3 12 6 18 20
12 27 32 27 27 0 -2 -9 3 -18 11 -21 10 -3 12 0 8 12 -6 14 -3 16 16 10 12 -4
27 -14 34 -23 11 -15 12 -14 18 2 8 18 35 24 35 7 0 -5 -4 -10 -9 -10 -5 0
-11 -6 -14 -14 -4 -10 0 -12 14 -9 11 3 19 14 19 25 0 16 3 18 13 10 7 -6 34
-9 60 -7 35 2 50 -1 54 -11 3 -8 14 -14 24 -14 10 0 19 -4 19 -10 0 -5 5 -10
11 -10 5 0 7 5 3 12 -5 8 0 9 17 4 13 -4 42 -11 64 -16 22 -4 41 -13 43 -19 2
-6 12 -11 23 -11 12 0 16 -5 13 -14 -6 -16 4 -24 45 -36 23 -6 28 -5 28 9 0
44 4 61 18 75 21 21 19 46 -5 46 -11 0 -20 -6 -20 -12 0 -9 -4 -8 -10 2 -9 13
-12 12 -25 -4 -15 -19 -15 -19 -15 2 0 17 -8 22 -37 27 -303 48 -540 131 -623
220 -34 36 -33 53 2 91 37 38 133 72 231 80 34 3 78 10 97 14 106 27 685 37
823 14 35 -6 37 -5 37 20 0 14 -4 26 -10 26 -6 0 -6 9 0 26 6 14 10 120 10
235 0 192 -1 209 -17 209 -11 0 -14 3 -7 8 25 17 19 92 -7 77 -5 -4 -9 -2 -9
3 0 5 8 12 19 15 17 4 18 20 20 254 2 215 0 251 -13 263 -20 16 -21 31 -1 24
14 -6 15 14 14 155 0 128 -4 163 -14 168 -11 4 -11 9 -3 23 9 14 7 26 -6 54
-9 20 -21 34 -25 31 -5 -2 -16 4 -26 15 -14 16 -16 23 -7 32 7 7 12 22 12 35
0 16 4 21 15 17 8 -4 15 -1 15 5 0 6 -6 10 -12 9 -7 -2 -14 8 -15 22 -1 14 0
19 3 13 13 -28 24 -10 24 38 0 28 -4 48 -9 44 -5 -3 -12 -1 -16 4 -3 5 -22 10
-43 9 l-37 0 -2 -56 c-1 -40 2 -59 13 -66 9 -7 16 -33 18 -69 l4 -57 -38 6
c-34 6 -38 4 -44 -20 -3 -14 -13 -26 -22 -26 -8 0 -12 -4 -9 -10 3 -5 -1 -10
-9 -10 -10 0 -13 6 -10 15 6 15 -33 37 -49 28 -4 -3 -20 -8 -35 -12 -23 -7
-28 -5 -28 10 0 9 4 17 9 16 24 -5 14 23 -12 36 -25 12 -31 13 -31 2 0 -7 -8
-12 -17 -11 -13 1 -17 -5 -15 -21 4 -30 -3 -29 -34 4 -13 14 -32 27 -42 28 -9
0 -23 4 -30 9 -14 9 -16 -8 -3 -32 14 -27 -9 -51 -42 -45 -15 3 -27 9 -27 14
0 13 -23 10 -44 -6 -17 -13 -17 -17 -5 -32 13 -17 13 -17 -6 -4 -11 8 -32 26
-46 39 -23 20 -27 21 -33 7 -4 -11 6 -27 30 -49 l36 -33 -30 0 c-21 0 -29 4
-25 14 6 16 -2 17 -28 2 -26 -13 -62 -3 -39 11 13 8 12 10 -2 10 -25 0 -57 38
-51 61 4 15 2 18 -11 13 -10 -4 -22 0 -30 11 -9 12 -15 14 -20 7 -4 -7 -15 -8
-29 -3 -16 6 -25 4 -34 -8 -10 -13 -14 -13 -21 -3 -7 10 -12 10 -22 -3 -12
-14 -11 -18 1 -26 11 -7 9 -9 -8 -9 -16 0 -23 -6 -23 -20 0 -11 -6 -20 -14
-20 -8 0 -17 -10 -19 -22 -3 -15 -4 -13 -2 5 1 15 -2 30 -7 33 -4 3 -8 0 -8
-6 0 -22 -41 -5 -58 23 -16 27 -16 29 2 43 16 11 22 11 28 1 4 -6 8 -7 8 -2 0
20 -18 37 -31 30 -9 -6 -11 -4 -6 8 3 9 2 19 -3 22 -6 4 -10 1 -10 -4 0 -6 -5
-11 -10 -11 -6 0 -8 10 -5 23 5 19 -1 29 -32 52 -21 16 -39 32 -41 37 -2 4
-10 4 -18 1 -7 -3 -16 1 -19 9 -3 8 -12 15 -20 15 -22 0 -18 -18 5 -24 12 -3
20 -14 20 -27 0 -14 -3 -17 -8 -8 -11 17 -37 -31 -28 -53 3 -9 2 -14 -2 -11
-4 2 -16 -2 -27 -10 -10 -8 -13 -14 -7 -14 7 0 12 -5 12 -11 0 -5 -4 -8 -9 -4
-5 3 -12 1 -16 -5 -3 -5 -10 -10 -15 -10 -6 0 -1 16 10 36 11 19 21 46 22 60
2 14 9 24 18 24 13 0 13 2 1 9 -12 8 -13 14 -3 36 7 16 9 32 4 39 -5 6 -9 22
-10 35 0 13 -7 28 -13 32 -12 7 -17 85 -18 255 0 55 -17 80 -49 72 -15 -4 -19
0 -19 22 0 15 -9 48 -21 74 -12 25 -22 53 -22 61 0 8 -4 15 -10 15 -5 0 -10 7
-10 15 0 17 -25 20 -35 5 -4 -6 -11 -8 -16 -5 -5 4 -9 1 -9 -4 0 -6 5 -11 11
-11 5 0 7 -5 4 -10 -10 -16 -25 -1 -25 26 0 14 -7 27 -15 30 -9 4 -15 19 -15
40 0 19 -4 34 -9 34 -6 0 -8 9 -6 20 2 11 0 18 -6 15 -5 -4 -10 1 -10 9 -2 20
-3 25 -18 61 -8 20 -9 31 -2 33 6 2 -3 21 -21 43 -31 38 -33 64 -3 39 24 -20
17 -2 -10 28 -14 15 -32 34 -41 43 -12 14 -13 18 -2 22 10 4 10 6 1 6 -7 1
-13 8 -13 17 0 10 5 14 15 10 13 -4 13 -2 5 14 -14 26 -13 27 12 26 15 -1 24
7 29 24 7 24 7 24 8 3 1 -28 21 -31 21 -3 0 13 7 20 20 20 13 0 20 -7 20 -20
0 -26 17 -26 25 0 5 15 12 19 25 15 19 -6 51 18 49 38 0 9 -2 8 -6 0 -6 -15
-53 -18 -53 -3 0 16 -407 13 -413 -2 -3 -10 -7 -10 -18 -2 -19 16 -57 12 -70
-6 -9 -13 -10 -12 -5 3 4 14 -1 17 -34 17 -22 0 -40 -4 -40 -10z m537 -522
c-3 -7 -5 -2 -5 12 0 14 2 19 5 13 2 -7 2 -19 0 -25z m-577 -143 c7 -8 8 -15
2 -15 -5 0 -15 7 -22 15 -7 8 -8 15 -2 15 5 0 15 -7 22 -15z m-2423 -637 c-3
-7 -5 -2 -5 12 0 14 2 19 5 13 2 -7 2 -19 0 -25z m3 -81 c0 -19 -6 -40 -14
-46 -20 -17 -46 39 -46 98 l0 46 30 -32 c21 -23 30 -42 30 -66z m3348 71 c1
-7 4 -26 8 -41 6 -27 6 -28 -15 -15 -12 7 -17 14 -13 16 5 1 7 14 4 27 -2 14
0 25 5 25 5 0 10 -6 11 -12z m89 -30 c-3 -8 -6 -5 -6 6 -1 11 2 17 5 13 3 -3
4 -12 1 -19z m-382 -8 c3 -5 1 -10 -4 -10 -6 0 -11 5 -11 10 0 6 2 10 4 10 3
0 8 -4 11 -10z m-281 -49 c-6 -28 -4 -29 26 -27 l32 2 -5 -51 c-3 -28 -1 -59
5 -69 7 -12 7 -21 -1 -29 -7 -7 -12 -5 -16 9 -14 42 -35 84 -43 84 -5 0 -15
-11 -22 -25 -15 -27 -23 -26 -25 5 -1 10 3 18 9 17 6 -1 9 5 7 13 -8 26 -2 75
9 78 5 2 10 10 10 18 0 9 4 12 10 9 5 -3 7 -19 4 -34z m486 24 c0 -8 -2 -15
-4 -15 -2 0 -6 7 -10 15 -3 8 -1 15 4 15 6 0 10 -7 10 -15z m-620 -14 c0 -5
-5 -11 -12 -13 -7 -3 -12 -21 -12 -41 0 -20 -4 -37 -9 -37 -5 0 -7 -7 -3 -15
10 -26 -10 -16 -23 12 -10 21 -9 28 1 34 10 7 11 12 1 29 -17 26 -16 28 5 33
30 8 52 7 52 -2z m170 -5 c0 -11 -19 -15 -25 -6 -3 5 1 10 9 10 9 0 16 -2 16
-4z m-293 -28 c-3 -8 -6 -5 -6 6 -1 11 2 17 5 13 3 -3 4 -12 1 -19z m383 2 c9
-16 8 -20 -5 -20 -8 0 -15 9 -15 20 0 11 2 20 5 20 2 0 9 -9 15 -20z m820 -80
c0 -9 -25 -20 -46 -20 -12 0 -12 4 -2 21 11 18 10 23 -9 39 -13 10 -23 25 -23
34 0 10 14 2 40 -25 22 -23 40 -45 40 -49z m800 74 c0 -13 -3 -14 -14 -5 -11
10 -15 8 -19 -6 -4 -14 -5 -13 -6 5 -1 16 5 22 19 22 12 0 20 -7 20 -16z
m-1870 -9 c0 -8 -2 -15 -4 -15 -2 0 -6 7 -10 15 -3 8 -1 15 4 15 6 0 10 -7 10
-15z m258 -51 c-11 -23 -13 -24 -19 -7 -12 29 -10 33 11 33 17 0 18 -3 8 -26z
m274 4 c-7 -7 -12 -8 -12 -2 0 6 3 14 7 17 3 4 9 5 12 2 2 -3 -1 -11 -7 -17z
m1348 7 c0 -8 -2 -15 -4 -15 -2 0 -6 7 -10 15 -3 8 -1 15 4 15 6 0 10 -7 10
-15z m-1880 -25 c0 -11 -4 -20 -10 -20 -5 0 -10 9 -10 20 0 11 5 20 10 20 6 0
10 -9 10 -20z m1920 16 c0 -3 -4 -8 -10 -11 -5 -3 -10 -1 -10 4 0 6 5 11 10
11 6 0 10 -2 10 -4z m-1649 -59 c-13 -13 -15 1 -4 30 7 17 8 17 11 -1 2 -10
-1 -23 -7 -29z m31 -35 c-10 -3 0 -34 18 -52 10 -10 11 -48 0 -55 -5 -3 -10 2
-10 12 0 11 -4 23 -9 29 -10 9 -14 42 -12 84 2 24 2 24 13 6 8 -15 8 -21 0
-24z m-32 8 c0 -5 -4 -10 -10 -10 -5 0 -10 5 -10 10 0 6 5 10 10 10 6 0 10 -4
10 -10z m80 6 c0 -3 -4 -8 -10 -11 -5 -3 -10 -1 -10 4 0 6 5 11 10 11 6 0 10
-2 10 -4z m100 -7 c0 -12 -19 -21 -30 -14 -6 4 -8 10 -6 14 7 10 36 10 36 0z
m-3070 -30 c-12 -16 -24 -28 -26 -26 -8 8 22 57 34 57 9 0 6 -10 -8 -31z
m3725 -6 c5 -21 8 -24 16 -12 6 10 9 7 9 -14 0 -27 0 -27 -25 -11 -33 22 -49
51 -32 57 22 9 25 7 32 -20z m-3835 -20 c0 -7 -4 -13 -10 -13 -5 0 -10 12 -10
28 0 21 2 24 10 12 5 -8 10 -21 10 -27z m2698 12 c-3 -3 -9 2 -12 12 -6 14 -5
15 5 6 7 -7 10 -15 7 -18z m1835 10 c-3 -9 -8 -14 -10 -11 -3 3 -2 9 2 15 9
16 15 13 8 -4z m-2463 -5 c0 -5 -2 -10 -4 -10 -3 0 -8 5 -11 10 -3 6 -1 10 4
10 6 0 11 -4 11 -10z m1550 -11 c0 -5 -4 -9 -10 -9 -5 0 -10 7 -10 16 0 8 5
12 10 9 6 -3 10 -10 10 -16z m90 11 c0 -5 -4 -10 -10 -10 -5 0 -10 5 -10 10 0
6 5 10 10 10 6 0 10 -4 10 -10z m526 -6 c-3 -9 -6 -20 -6 -25 0 -15 -20 -10
-27 7 -3 9 0 20 8 25 21 13 32 11 25 -7z m324 6 c0 -5 -5 -10 -11 -10 -5 0 -7
5 -4 10 3 6 8 10 11 10 2 0 4 -4 4 -10z m-1425 -10 c3 -5 1 -10 -4 -10 -6 0
-11 5 -11 10 0 6 2 10 4 10 3 0 8 -4 11 -10z m1508 -10 c3 -11 1 -20 -4 -20
-5 0 -9 2 -9 4 0 2 -3 11 -6 20 -3 9 -2 16 4 16 5 0 12 -9 15 -20z m-1643 -14
c0 -8 -4 -18 -10 -21 -5 -3 -10 3 -10 14 0 12 5 21 10 21 6 0 10 -6 10 -14z
m786 -9 c-4 -42 -16 -50 -36 -27 -23 27 -16 50 15 50 19 0 23 -5 21 -23z m771
1 c-3 -8 -6 -5 -6 6 -1 11 2 17 5 13 3 -3 4 -12 1 -19z m-887 -21 c0 -7 -8
-17 -17 -23 -16 -10 -18 -7 -20 22 -1 31 0 33 18 24 10 -6 19 -16 19 -23z
m-3343 1 c-3 -8 -6 -5 -6 6 -1 11 2 17 5 13 3 -3 4 -12 1 -19z m2793 -10 c0
-18 -2 -20 -9 -8 -6 8 -7 18 -5 22 9 14 14 9 14 -14z m-3000 -9 c0 -11 -3 -11
-24 -3 -23 9 -20 23 4 17 11 -3 20 -9 20 -14z m1890 1 c0 -5 -5 -10 -11 -10
-5 0 -7 5 -4 10 3 6 8 10 11 10 2 0 4 -4 4 -10z m1830 0 c0 -5 -2 -10 -4 -10
-3 0 -8 5 -11 10 -3 6 -1 10 4 10 6 0 11 -4 11 -10z m-1659 -20 c-2 -8 -4 -20
-4 -27 0 -7 -14 -12 -34 -11 -19 1 -29 4 -22 8 8 6 8 9 0 15 -20 12 9 36 38
33 17 -2 25 -8 22 -18z m227 -2 c-2 -6 -14 -15 -26 -19 -20 -8 -21 -6 -12 11
11 21 44 28 38 8z m82 8 c0 -2 -7 -6 -15 -10 -8 -3 -15 -1 -15 4 0 6 7 10 15
10 8 0 15 -2 15 -4z m1319 -40 c-1 -19 -2 -18 -9 4 -4 14 -8 19 -9 12 -1 -7
-5 -11 -11 -7 -5 3 -7 12 -3 21 8 21 33 -2 32 -30z m-1742 -1 c0 -8 -4 -12 -9
-9 -5 3 -6 10 -3 15 9 13 12 11 12 -6z m2397 -10 c-4 -8 -7 -15 -9 -15 -2 0
-5 7 -9 15 -3 9 0 15 9 15 9 0 12 -6 9 -15z m-1707 -23 c-10 -10 -17 -23 -17
-28 -1 -5 -12 -18 -27 -29 -14 -11 -34 -30 -46 -42 -11 -12 -23 -20 -27 -18
-5 3 -11 -2 -14 -11 -4 -9 -9 -14 -12 -11 -4 3 -17 -7 -31 -24 -14 -16 -29
-29 -35 -29 -13 0 -56 -39 -132 -119 -15 -16 -40 -31 -55 -33 -14 -2 -25 -7
-23 -11 5 -14 -28 -39 -45 -33 -14 6 -14 8 3 20 27 20 17 25 -65 30 -40 3 -76
7 -79 10 -8 9 89 6 130 -3 35 -8 40 -6 80 31 23 21 67 58 98 81 30 23 57 44
60 47 3 3 27 23 53 44 27 21 56 47 65 56 32 32 125 101 130 95 3 -3 -2 -13
-11 -23z m1187 20 c-15 -10 -94 -127 -94 -140 0 -6 -3 -12 -7 -14 -17 -7 -133
-191 -133 -210 0 -20 -1 -21 -20 -3 -25 23 -25 26 6 61 14 16 68 93 120 172
74 110 100 142 117 142 13 0 17 -3 11 -8z m78 -17 c-5 -29 -22 -34 -22 -6 0
11 -8 22 -17 24 -10 3 -4 5 13 6 28 1 31 -1 26 -24z m44 -19 c-3 -14 -11 -26
-16 -26 -11 0 -14 53 -3 64 13 12 26 -13 19 -38z m-3306 30 c0 -3 -4 -8 -10
-11 -5 -3 -10 -1 -10 4 0 6 5 11 10 11 6 0 10 -2 10 -4z m-620 -16 c0 -5 -5
-10 -11 -10 -5 0 -7 5 -4 10 3 6 8 10 11 10 2 0 4 -4 4 -10z m575 0 c3 -5 -3
-10 -14 -10 -12 0 -21 5 -21 10 0 6 6 10 14 10 8 0 18 -4 21 -10z m3400 -49
c3 -6 3 -11 -2 -11 -12 0 -33 51 -26 64 4 5 10 -2 14 -16 4 -15 10 -31 14 -37z
m-3501 15 c-6 -15 -24 -23 -24 -11 0 8 24 34 28 30 1 -1 0 -10 -4 -19z m162
-11 c3 -13 0 -33 -6 -45 -11 -21 -12 -21 -25 -3 -15 18 -20 65 -9 76 11 11 34
-5 40 -28z m1234 20 c0 -8 -4 -15 -10 -15 -5 0 -10 7 -10 15 0 8 5 15 10 15 6
0 10 -7 10 -15z m-1350 -5 c0 -5 -4 -10 -10 -10 -5 0 -10 5 -10 10 0 6 5 10
10 10 6 0 10 -4 10 -10z m45 -20 c20 -39 19 -60 -4 -60 -24 0 -43 49 -29 73
12 23 15 22 33 -13z m3077 -2 c-8 -8 -9 -4 -5 13 4 13 8 18 11 10 2 -7 -1 -18
-6 -23z m-676 -5 c-10 -10 -19 5 -10 18 6 11 8 11 12 0 2 -7 1 -15 -2 -18z
m925 5 c11 -21 11 -22 -4 -9 -10 7 -17 17 -17 22 0 15 9 10 21 -13z m-2036 2
c4 -6 -5 -10 -20 -10 -15 0 -24 4 -20 10 3 6 12 10 20 10 8 0 17 -4 20 -10z
m868 -99 c-1 -2 -3 2 -4 10 0 8 -4 6 -9 -6 -7 -15 -9 -7 -8 30 2 74 12 88 19
25 3 -30 4 -57 2 -59z m1117 78 c-5 -18 -19 -38 -30 -46 -12 -8 -19 -21 -16
-29 3 -8 1 -14 -4 -14 -5 0 -7 -7 -4 -15 4 -8 1 -15 -5 -15 -6 0 -11 10 -11
23 0 13 -6 29 -12 36 -11 11 -9 12 9 7 18 -6 21 -4 16 15 -4 15 -3 20 5 15 8
-5 12 2 12 21 l1 28 14 -25 c13 -23 14 -23 15 -4 0 18 8 34 16 34 1 0 -1 -14
-6 -31z m-900 -23 c0 -24 3 -51 6 -60 4 -10 1 -16 -9 -16 -11 0 -15 14 -16 60
0 33 4 60 9 60 6 0 10 -20 10 -44z m84 30 c-3 -8 -14 -12 -25 -9 -27 7 -24 18
6 21 17 1 23 -2 19 -12z m1131 -28 c2 -25 -2 -38 -15 -46 -16 -10 -20 -8 -25
9 -4 13 -1 27 9 38 9 10 16 24 16 31 0 26 12 1 15 -32z m-3641 6 c10 -27 7
-54 -7 -48 -18 6 -39 43 -32 54 9 15 32 12 39 -6z m2556 -54 c0 -51 -3 -60
-17 -60 -29 0 -44 15 -37 35 7 18 8 18 15 -1 7 -17 8 -17 8 -1 1 10 -6 20 -14
23 -8 4 -15 18 -15 32 0 25 1 25 15 6 12 -16 14 -17 15 -2 0 14 7 21 28 27 1
1 2 -26 2 -59z m893 35 c-7 -21 -13 -19 -13 6 0 11 4 18 10 14 5 -3 7 -12 3
-20z m-3541 -7 c-7 -7 -12 -8 -12 -2 0 6 3 14 7 17 3 4 9 5 12 2 2 -3 -1 -11
-7 -17z m2195 -10 c-3 -7 -5 -2 -5 12 0 14 2 19 5 13 2 -7 2 -19 0 -25z m353
21 c0 -5 5 -7 10 -4 16 10 31 -41 20 -67 -8 -21 -9 -21 -10 -3 l-1 20 -11 -20
c-12 -19 -13 -18 -19 10 -10 47 -10 75 1 75 6 0 10 -5 10 -11z m914 -5 c3 -8
1 -25 -6 -37 l-11 -22 -10 22 c-10 23 -4 53 12 53 5 0 12 -7 15 -16z m-3489
-14 c-4 -6 -4 -19 0 -28 6 -15 8 -15 15 3 7 19 8 18 13 -5 18 -87 34 -236 28
-253 -6 -17 -10 -13 -19 24 -6 24 -14 79 -17 122 -4 43 -10 75 -13 72 -11 -10
-11 -79 0 -112 7 -26 6 -36 -6 -49 -12 -12 -16 -12 -16 -2 -1 8 -7 5 -16 -7
-15 -19 -15 -17 -10 25 3 25 8 77 11 115 7 83 13 105 26 105 6 0 7 -5 4 -10z
m1332 -32 c-3 -8 -6 -5 -6 6 -1 11 2 17 5 13 3 -3 4 -12 1 -19z m153 -9 c0
-17 -4 -28 -10 -24 -5 3 -10 17 -10 31 0 13 5 24 10 24 6 0 10 -14 10 -31z
m50 19 c0 -7 -5 -20 -10 -28 -9 -13 -11 -13 -20 0 -16 24 -12 40 10 40 11 0
20 -6 20 -12z m23 -23 c-8 -22 -22 -18 -16 5 3 11 9 17 14 15 4 -3 6 -12 2
-20z m663 2 c8 3 14 1 14 -5 0 -5 -9 -12 -20 -15 -16 -4 -20 0 -19 16 0 12 3
17 5 10 3 -7 12 -9 20 -6z m-1944 -56 c-1 -45 -18 -85 -33 -76 -5 4 -12 -1
-15 -9 -3 -9 -10 -13 -15 -10 -15 9 -10 22 11 29 27 8 43 42 42 84 -1 18 1 31
4 28 4 -3 6 -24 6 -46z m1818 13 c0 -21 -4 -33 -10 -29 -6 4 -10 -7 -9 -27 0
-26 2 -29 8 -14 8 20 8 20 13 0 3 -11 -1 -25 -9 -32 -11 -11 -15 -9 -23 10 -8
18 -8 15 -4 -14 8 -46 -11 -52 -20 -7 -10 52 -7 79 9 79 8 0 15 7 15 16 0 8 5
12 10 9 6 -4 10 5 10 19 0 14 2 26 5 26 3 0 5 -16 5 -36z m263 16 c3 -11 1
-18 -4 -14 -5 3 -9 12 -9 20 0 20 7 17 13 -6z m87 0 c0 -5 -7 -10 -16 -10 -8
0 -12 5 -9 10 3 6 10 10 16 10 5 0 9 -4 9 -10z m1543 -15 c-7 -21 -13 -19 -13
6 0 11 4 18 10 14 5 -3 7 -12 3 -20z m-1806 -7 c-3 -8 -6 -5 -6 6 -1 11 2 17
5 13 3 -3 4 -12 1 -19z m1183 1 c0 -6 -4 -7 -10 -4 -5 3 -10 11 -10 16 0 6 5
7 10 4 6 -3 10 -11 10 -16z m-2275 -2 c7 -8 10 -18 7 -23 -9 -12 -35 -17 -28
-5 3 5 -4 12 -17 15 -21 7 -21 7 -2 16 27 12 25 12 40 -3z m2375 -12 c0 -14
-4 -25 -10 -25 -11 0 -14 33 -3 43 11 11 13 8 13 -18z m-140 -5 c6 -11 7 -20
2 -20 -6 0 -12 9 -15 20 -3 11 -3 20 -1 20 2 0 8 -9 14 -20z m-1787 3 c4 -3 2
-12 -4 -20 -8 -9 -8 -17 -1 -26 7 -8 7 -18 2 -27 -7 -10 -10 -11 -10 -2 0 6
-5 12 -11 12 -6 0 -8 -9 -4 -20 7 -22 -5 -26 -23 -8 -17 17 -15 48 4 48 12 0
15 6 10 25 -5 20 -3 25 12 25 10 0 22 -3 25 -7z m1102 -3 c-3 -5 -17 -10 -31
-10 -13 0 -24 5 -24 10 0 6 14 10 31 10 17 0 28 -4 24 -10z m-2568 -22 c-3 -8
-6 -5 -6 6 -1 11 2 17 5 13 3 -3 4 -12 1 -19z m2813 -34 c0 -13 -4 -24 -9 -24
-10 0 -21 47 -13 54 10 11 22 -6 22 -30z m200 20 c0 -8 -5 -12 -10 -9 -6 4 -8
11 -5 16 9 14 15 11 15 -7z m47 8 c9 -6 5 -16 -13 -37 -25 -30 -25 -30 -20 -5
3 14 6 31 6 38 0 14 9 15 27 4z m-115 -14 c-23 -8 -39 -8 -55 0 -19 9 -13 11
33 10 53 0 54 -1 22 -10z m959 -4 c17 -15 17 -18 2 -50 -9 -18 -20 -31 -25
-28 -18 11 -28 55 -18 75 13 23 18 24 41 3z m-701 -21 c0 -20 -3 -24 -11 -16
-7 7 -9 19 -6 27 10 24 17 19 17 -11z m-272 -4 c-2 -6 -8 -10 -13 -10 -5 0
-11 4 -13 10 -2 6 4 11 13 11 9 0 15 -5 13 -11z m910 0 c-2 -6 -8 -10 -13 -10
-5 0 -11 4 -13 10 -2 6 4 11 13 11 9 0 15 -5 13 -11z m-973 -10 c11 -17 -1
-21 -15 -4 -8 9 -8 15 -2 15 6 0 14 -5 17 -11z m110 -9 c3 -5 3 -21 -1 -36
l-7 -27 -12 24 c-18 32 1 70 20 39z m-3174 -33 c-6 -6 -12 -34 -12 -61 -1 -28
-4 -40 -6 -26 -3 14 -8 27 -12 30 -12 8 -21 54 -13 66 9 15 46 22 51 11 2 -5
-2 -14 -8 -20z m298 29 c-2 -2 -17 -6 -34 -10 -22 -5 -26 -4 -15 4 14 9 59 15
49 6z m1731 -11 c-7 -9 -15 -13 -17 -11 -7 7 7 26 19 26 6 0 6 -6 -2 -15z
m-2200 -5 c0 -5 -4 -10 -10 -10 -5 0 -10 5 -10 10 0 6 5 10 10 10 6 0 10 -4
10 -10z m1875 -96 c12 -19 13 -28 3 -49 -6 -14 -19 -25 -28 -25 -14 0 -18 14
-23 76 -5 53 -3 79 6 88 10 11 13 6 19 -26 4 -22 14 -51 23 -64z m-3115 92 c0
-2 -6 -9 -13 -15 -10 -8 -14 -7 -14 4 0 8 6 15 14 15 7 0 13 -2 13 -4z m-147
-27 c4 -16 3 -18 -9 -8 -16 13 -19 29 -5 29 5 0 11 -9 14 -21z m3413 0 c3 -5
-11 -9 -30 -9 -26 0 -34 4 -30 14 5 14 50 10 60 -5z m1490 5 c-3 -8 -1 -24 4
-35 8 -13 7 -19 0 -19 -17 0 -29 42 -16 57 15 17 19 16 12 -3z m-3521 -12 c-3
-3 -11 0 -18 7 -9 10 -8 11 6 5 10 -3 15 -9 12 -12z m288 -46 l42 -14 -39 -1
c-36 -1 -38 -2 -22 -14 10 -8 30 -12 43 -9 25 5 25 5 19 -57 -3 -35 -11 -72
-17 -84 -9 -16 -9 -22 0 -25 17 -6 13 -19 -9 -25 -17 -4 -18 -1 -13 27 3 17
10 33 15 34 12 5 10 42 -3 42 -7 0 -9 11 -6 30 4 16 3 32 -2 34 -5 3 -12 -44
-16 -104 -4 -72 -11 -110 -18 -111 -58 -7 -57 -7 -51 17 5 20 2 24 -15 24 -12
0 -24 7 -27 15 -4 8 -12 15 -20 15 -8 0 -14 7 -14 16 0 8 5 12 11 8 6 -3 22 6
35 22 l23 29 1 -39 c0 -44 10 -43 15 1 14 124 17 148 21 155 3 4 -2 5 -10 2
-17 -6 -17 25 0 61 8 18 9 18 12 -7 3 -21 12 -30 45 -42z m3584 15 c2 -2 12 4
23 14 23 20 27 6 8 -25 -11 -17 -10 -22 2 -30 11 -7 7 -10 -17 -10 -29 0 -33
-3 -33 -26 0 -14 -4 -23 -10 -19 -5 3 -10 15 -10 25 0 16 -5 18 -28 14 -25 -5
-28 -3 -30 25 -3 36 11 47 33 25 21 -22 26 -15 35 51 1 6 6 -1 13 -15 6 -14
12 -27 14 -29z m443 29 c-6 -11 -12 -20 -14 -20 -2 0 -2 9 1 20 3 11 9 20 15
20 5 0 4 -9 -2 -20z m-1091 -8 c10 -19 -11 -53 -41 -65 -11 -4 -18 -17 -18
-32 0 -14 -4 -25 -10 -25 -5 0 -10 -7 -10 -15 0 -8 -4 -15 -9 -15 -6 0 -6 14
0 35 6 19 9 41 8 47 -3 28 2 40 27 63 32 30 40 31 53 7z m212 -15 c-8 -8 -11
-7 -11 4 0 20 13 34 18 19 3 -7 -1 -17 -7 -23z m-1531 -14 c0 -22 -2 -25 -10
-13 -13 20 -13 40 0 40 6 0 10 -12 10 -27z m1420 0 c0 -19 -13 -9 -16 12 -1 8
2 13 7 9 5 -3 9 -12 9 -21z m970 -4 c0 -5 -4 -9 -10 -9 -5 0 -10 7 -10 16 0 8
5 12 10 9 6 -3 10 -10 10 -16z m-5650 1 c0 -5 -4 -10 -10 -10 -5 0 -10 5 -10
10 0 6 5 10 10 10 6 0 10 -4 10 -10z m4292 -8 c-12 -2 -20 -8 -17 -13 4 -5 1
-9 -4 -9 -6 0 -11 6 -11 14 0 16 29 26 45 17 6 -3 0 -7 -13 -9z m538 8 c0 -5
-4 -10 -10 -10 -5 0 -10 5 -10 10 0 6 5 10 10 10 6 0 10 -4 10 -10z m-4735
-31 c-4 -5 -13 -9 -21 -9 -12 0 -12 2 -2 14 14 15 32 11 23 -5z m125 1 c0 -5
-5 -10 -11 -10 -5 0 -7 5 -4 10 3 6 8 10 11 10 2 0 4 -4 4 -10z m4117 4 c-3
-3 -12 -4 -19 -1 -8 3 -5 6 6 6 11 1 17 -2 13 -5z m326 -32 c-4 -10 -8 -11
-13 -2 -6 9 -9 9 -15 0 -4 -7 -2 -16 6 -21 11 -6 10 -9 -4 -15 -9 -3 -15 -10
-12 -14 6 -10 -5 -40 -15 -40 -4 0 -4 18 0 41 4 22 5 50 2 61 -3 14 -1 19 6
14 7 -4 12 -2 12 3 0 8 6 7 19 -1 10 -6 17 -18 14 -26z m-3423 19 c0 -6 -4
-13 -10 -16 -5 -3 -10 1 -10 9 0 9 5 16 10 16 6 0 10 -4 10 -9z m3465 -19 c-3
-3 -11 0 -18 7 -9 10 -8 11 6 5 10 -3 15 -9 12 -12z m45 3 c0 -12 -19 -12 -23
0 -4 9 -1 12 9 8 7 -3 14 -7 14 -8z m-404 -20 c-5 -21 -2 -26 20 -31 18 -5 22
-9 13 -14 -16 -10 -35 -3 -67 27 -15 14 -19 21 -9 17 12 -4 17 -1 17 10 0 9 7
16 16 16 12 0 15 -6 10 -25z m-1176 -10 c0 -30 -25 -34 -40 -6 -8 16 -6 20 8
24 31 8 32 7 32 -18z m1305 -47 c4 -12 3 -18 -5 -18 -7 0 -10 -7 -6 -15 3 -8
0 -15 -7 -15 -7 0 -23 -14 -36 -30 -13 -16 -27 -27 -33 -24 -5 3 -4 12 3 20 6
8 13 32 15 54 1 24 12 52 26 68 l23 29 6 -26 c4 -14 10 -34 14 -43z m94 45 c0
-25 -1 -26 -9 -8 -12 27 -12 35 0 35 6 0 10 -12 9 -27z m231 18 c0 -5 -9 -7
-20 -4 -11 3 -20 7 -20 9 0 2 9 4 20 4 11 0 20 -4 20 -9z m-1545 -11 c3 -5 1
-10 -4 -10 -6 0 -11 5 -11 10 0 6 2 10 4 10 3 0 8 -4 11 -10z m1739 -5 c3 -8
1 -15 -4 -15 -6 0 -10 7 -10 15 0 8 2 15 4 15 2 0 6 -7 10 -15z m-3423 -32
c-12 -20 -14 -14 -5 12 4 9 9 14 11 11 3 -2 0 -13 -6 -23z m3129 23 c0 -2 3
-12 7 -22 4 -12 3 -15 -5 -10 -7 4 -12 1 -12 -9 0 -9 -4 -13 -10 -10 -16 10
-12 55 5 55 8 0 15 -2 15 -4z m-1400 -21 c10 -12 7 -17 -15 -27 -22 -10 -28
-9 -35 2 -10 16 5 40 25 40 7 0 18 -7 25 -15z m1670 0 c0 -8 -4 -15 -10 -15
-5 0 -10 7 -10 15 0 8 5 15 10 15 6 0 10 -7 10 -15z m-26 -20 c9 -14 13 -25 9
-25 -12 1 -46 50 -35 50 6 0 17 -11 26 -25z m-571 -17 c23 1 22 -17 -4 -45
-18 -18 -20 -25 -9 -38 13 -15 8 -19 -22 -16 -9 1 -19 -3 -23 -9 -3 -5 -11
-10 -16 -10 -6 0 -3 7 5 16 22 21 20 47 -5 70 -19 17 -19 19 -3 31 10 7 27 10
38 6 12 -3 29 -6 39 -5z m144 -4 c-3 -3 -12 -4 -19 -1 -8 3 -5 6 6 6 11 1 17
-2 13 -5z m633 -9 c8 -10 9 -28 4 -57 -4 -24 -9 -36 -12 -28 -2 8 -11 23 -19
32 -10 11 -13 26 -9 43 7 28 18 32 36 10z m-594 -21 c-7 -19 15 -30 25 -11 9
16 49 12 49 -5 0 -5 -5 -6 -11 -3 -6 4 -13 -2 -16 -14 -6 -23 -19 -28 -26 -8
-3 6 -6 -8 -6 -32 -1 -29 5 -51 17 -64 17 -19 16 -19 -5 -6 -13 8 -23 21 -23
29 0 8 -7 33 -15 56 -11 34 -13 54 -6 82 1 2 6 0 12 -3 6 -4 8 -13 5 -21z
m1204 11 c0 -8 -6 -15 -14 -15 -17 0 -28 14 -19 24 12 12 33 6 33 -9z m-5058
-43 c-7 -2 -12 -10 -12 -17 0 -12 -28 -35 -42 -35 -2 0 -5 11 -6 23 -1 16 6
28 23 37 14 7 25 18 25 24 0 6 6 2 12 -8 8 -15 8 -21 0 -24z m3817 -37 c1 6 6
0 11 -12 5 -11 6 -30 3 -41 l-5 -21 -22 21 c-13 13 -17 22 -10 25 8 2 9 15 4
38 -4 19 -5 37 -1 40 3 4 9 -8 12 -27 4 -18 7 -28 8 -23z m151 45 c0 -5 -7
-10 -15 -10 -8 0 -15 5 -15 10 0 6 7 10 15 10 8 0 15 -4 15 -10z m660 0 c0 -5
-5 -10 -11 -10 -5 0 -7 5 -4 10 3 6 8 10 11 10 2 0 4 -4 4 -10z m324 -14 c-3
-9 -10 -16 -15 -16 -5 0 -4 9 3 20 14 22 21 20 12 -4z m-4206 2 c35 1 43 -12
15 -26 -18 -9 -244 -7 -295 3 -20 3 -28 0 -28 -10 0 -13 29 -15 189 -15 184 0
219 -6 194 -31 -8 -8 -332 -19 -573 -20 -36 0 -57 -3 -47 -6 9 -2 17 -13 17
-24 0 -15 -5 -18 -25 -15 -13 3 -27 0 -30 -5 -12 -18 -26 -9 -20 12 5 15 4 19
-4 15 -6 -4 -11 0 -11 8 0 12 -10 16 -39 16 -42 0 -54 8 -42 28 6 11 190 25
314 24 20 0 37 4 37 9 0 6 -53 10 -127 9 -189 -2 -189 -2 -176 11 7 7 104 12
288 14 152 1 279 6 282 9 4 3 16 3 27 0 12 -4 36 -6 54 -6z m902 3 c12 -1 11
-5 -4 -16 -20 -15 -20 -15 0 -16 18 0 18 -1 1 -12 -11 -7 -33 -24 -50 -39 -18
-15 -38 -28 -44 -28 -7 0 -13 -4 -13 -10 0 -5 8 -7 18 -4 15 5 15 4 -2 -10
-16 -13 -18 -24 -13 -68 3 -29 12 -66 21 -83 22 -42 20 -64 -8 -76 -14 -7 -22
-17 -20 -23 2 -6 -16 -31 -41 -56 -40 -40 -45 -42 -45 -21 0 12 5 32 11 43 9
16 8 23 -2 29 -8 5 -10 9 -5 9 5 0 18 -7 28 -17 17 -15 18 -15 18 1 0 10 -9
20 -19 23 -31 8 -33 45 -6 101 26 54 33 120 14 139 -8 8 -8 17 0 31 9 17 6 26
-16 51 -32 36 -49 38 -77 12 -12 -11 -33 -23 -49 -26 -22 -6 -26 -4 -21 8 3 9
13 18 22 20 14 4 13 6 -5 12 -31 10 -29 23 5 27 28 3 276 3 302 -1z m2490 -59
c0 -7 -4 -10 -10 -7 -5 3 -10 -3 -10 -15 0 -13 -5 -20 -12 -18 -19 7 -22 37
-7 64 11 22 13 22 25 6 7 -9 14 -23 14 -30z m-206 21 c6 -15 8 -15 16 -3 12
20 33 -1 24 -24 -4 -12 -13 -15 -28 -10 -31 10 -45 24 -39 40 7 19 19 18 27
-3z m-154 -28 c0 -13 5 -27 10 -30 17 -10 11 -27 -7 -23 -18 3 -33 51 -25 75
7 20 22 4 22 -22z m-2320 0 c14 -17 15 -17 -23 -33 -33 -14 -47 -9 -47 18 0
30 49 41 70 15z m220 -31 c0 -14 -4 -22 -10 -19 -5 3 -10 -1 -10 -10 0 -9 4
-14 9 -11 5 3 6 -8 2 -27 -4 -17 -9 -36 -9 -42 -9 -53 -16 -74 -32 -95 -24
-30 -28 -6 -5 27 8 11 16 36 19 54 2 19 5 39 6 44 6 25 -1 45 -15 45 -8 0 -15
4 -15 9 0 5 -2 16 -5 23 -4 9 5 18 22 24 35 13 43 9 43 -22z m490 14 c0 -19
-18 -43 -25 -36 -4 3 -2 16 5 27 12 24 20 27 20 9z m2090 -18 c13 -24 5 -40
-19 -40 -13 0 -20 9 -23 30 -4 24 -1 30 13 30 10 0 23 -9 29 -20z m-3406 -34
c-3 -11 -13 -28 -21 -36 -14 -13 -15 -13 -10 2 4 11 0 21 -10 27 -14 7 -15 12
-5 24 19 23 54 10 46 -17z m2883 2 c-3 -7 -5 -2 -5 12 0 14 2 19 5 13 2 -7 2
-19 0 -25z m688 5 c4 -16 8 -36 10 -45 2 -10 -1 -21 -6 -24 -5 -3 -9 0 -9 5 0
6 -8 11 -19 11 -13 0 -20 9 -24 33 -6 39 -2 47 23 47 13 0 22 -9 25 -27z
m-4362 10 c-7 -2 -19 -2 -25 0 -7 3 -2 5 12 5 14 0 19 -2 13 -5z m692 -11 c3
-9 1 -20 -5 -26 -14 -14 -12 -66 4 -98 10 -19 11 -29 3 -37 -8 -8 -8 -11 0
-11 7 0 19 10 27 22 9 12 16 18 16 13 0 -6 -13 -26 -29 -45 -15 -19 -38 -54
-50 -77 -25 -51 -36 -55 -27 -11 7 36 3 35 -18 -6 l-15 -29 -6 37 c-5 26 -1
57 16 109 13 39 23 91 23 115 -1 29 3 42 13 42 7 0 13 4 13 8 0 15 29 9 35 -6z
m2862 12 c12 -3 28 -20 37 -37 10 -20 16 -25 16 -14 0 29 18 19 25 -14 9 -41
-4 -49 -77 -49 -44 0 -58 4 -58 14 0 8 5 18 11 22 6 3 9 24 7 45 -4 40 0 43
39 33z m669 -40 c-3 -8 -13 -14 -22 -14 -16 0 -16 1 -1 18 10 10 18 25 18 33
1 8 3 7 6 -4 3 -10 2 -25 -1 -33z m-4244 2 c15 -21 16 -26 3 -36 -17 -14 -21
-100 -6 -115 15 -15 29 -91 21 -105 -4 -7 -28 -16 -54 -20 -43 -6 -45 -6 -51
21 -3 15 1 52 10 83 9 31 15 82 14 114 -1 32 1 64 5 70 12 19 40 13 58 -12z
m1405 -23 c-3 -10 -5 -2 -5 17 0 19 2 27 5 18 2 -10 2 -26 0 -35z m1010 15
c-3 -7 -5 -2 -5 12 0 14 2 19 5 13 2 -7 2 -19 0 -25z m-2367 12 c0 -5 -4 -10
-10 -10 -5 0 -10 5 -10 10 0 6 5 10 10 10 6 0 10 -4 10 -10z m1329 -89 c-1
-99 -12 -131 -28 -89 -24 62 -42 138 -36 149 7 10 41 27 58 28 4 1 7 -39 6
-88z m2388 26 c4 -25 2 -37 -6 -37 -7 0 -11 8 -9 18 2 9 -3 16 -9 15 -15 -3
-15 2 -7 35 9 31 23 15 31 -31z m228 23 c-10 -11 -25 -20 -33 -20 -12 0 -12 4
3 20 10 11 25 20 33 20 12 0 12 -4 -3 -20z m338 -32 c-10 -19 -21 -6 -18 20 5
39 6 40 14 12 5 -14 6 -28 4 -32z m-4443 17 c-7 -9 -15 -13 -18 -10 -3 2 1 11
8 20 7 9 15 13 18 10 3 -2 -1 -11 -8 -20z m2486 -13 c2 -11 0 -31 -6 -44 -8
-21 -9 -21 -11 -3 0 11 -3 33 -5 48 -3 33 17 33 22 -1z m-966 14 c0 -3 -4 -8
-10 -11 -5 -3 -10 -1 -10 4 0 6 5 11 10 11 6 0 10 -2 10 -4z m2483 -18 c3 -10
7 -10 20 0 22 19 37 7 37 -29 0 -32 -13 -37 -37 -13 -9 8 -22 13 -29 10 -10
-4 -14 3 -14 19 0 26 15 34 23 13z m-204 -39 c2 -6 -1 -9 -7 -5 -6 3 -13 2
-17 -4 -4 -6 -10 -8 -15 -5 -5 3 -11 1 -15 -5 -3 -5 -31 -10 -61 -10 -63 0
-101 15 -85 33 13 16 194 12 200 -4z m781 -15 c0 -2 -7 -4 -15 -4 -8 0 -15 4
-15 10 0 5 7 7 15 4 8 -4 15 -8 15 -10z m-4766 -12 c2 -4 -2 -15 -9 -25 -12
-16 -13 -16 -18 2 -7 26 14 44 27 23z m5079 -11 c-4 -3 -11 -10 -15 -15 -4 -4
-6 1 -5 12 1 12 6 18 15 15 7 -3 10 -9 5 -12z m62 -12 c-5 -16 -1 -19 25 -19
35 0 38 -22 4 -28 -31 -6 -41 -22 -21 -33 22 -13 23 -49 0 -49 -9 0 -13 3 -10
7 4 3 0 14 -8 23 -12 13 -13 23 -6 43 8 20 6 30 -10 48 -24 28 -24 27 6 27 20
0 24 -4 20 -19z m-1175 1 c0 -5 -2 -10 -4 -10 -3 0 -8 5 -11 10 -3 6 -1 10 4
10 6 0 11 -4 11 -10z m35 0 c-3 -5 -10 -10 -16 -10 -5 0 -9 5 -9 10 0 6 7 10
16 10 8 0 12 -4 9 -10z m66 -50 c-29 -34 -39 -33 -20 2 7 12 12 26 11 29 -1 4
7 5 17 2 16 -4 16 -7 -8 -33z m560 16 c-10 -11 -8 -17 6 -26 17 -11 17 -11 0
-6 -10 3 -21 6 -23 6 -2 0 -4 9 -4 20 0 12 7 20 16 20 13 0 14 -3 5 -14z m469
-12 c0 -8 -4 -12 -10 -9 -5 3 -10 13 -10 21 0 8 5 12 10 9 6 -3 10 -13 10 -21z
m160 4 c0 -4 -4 -8 -9 -8 -6 0 -12 4 -15 8 -3 5 1 9 9 9 8 0 15 -4 15 -9z
m-1130 -28 c-12 -22 -31 -23 -38 -2 -2 7 2 10 12 6 10 -4 18 0 22 10 4 9 9 15
11 12 3 -2 -1 -14 -7 -26z m700 0 c0 -5 -2 -10 -4 -10 -3 0 -8 5 -11 10 -3 6
-1 10 4 10 6 0 11 -4 11 -10z m-3479 -43 c-10 -9 -11 -8 -5 6 3 10 9 15 12 12
3 -3 0 -11 -7 -18z m-1402 -4 c-8 -10 -17 -20 -21 -23 -4 -3 -11 -17 -17 -30
l-10 -25 0 27 c-1 14 -7 29 -13 31 -7 3 -1 6 13 6 15 1 29 8 33 16 3 8 11 15
17 15 8 0 7 -6 -2 -17z m4398 -5 c-3 -8 -6 -5 -6 6 -1 11 2 17 5 13 3 -3 4
-12 1 -19z m447 7 c3 -8 2 -15 -3 -15 -5 0 -14 7 -21 15 -10 12 -10 15 3 15 8
0 17 -7 21 -15z m-3309 -26 c10 -30 2 -32 -12 -3 -6 13 -7 24 -3 24 5 0 12 -9
15 -21z m3105 -5 c0 -18 20 -17 44 1 27 21 46 19 46 -5 0 -14 -7 -20 -22 -21
-105 -5 -149 -10 -172 -19 -20 -7 -33 -7 -49 2 -20 11 -19 13 23 19 25 4 48 5
51 3 4 -2 14 7 23 20 17 26 56 26 56 0z m659 16 c-1 -3 3 -15 10 -27 6 -13 8
-23 3 -23 -6 0 -12 9 -15 20 -3 13 -14 20 -29 21 -22 0 -22 1 -3 9 20 9 39 8
34 0z m-863 -26 c-6 -23 -4 -26 11 -20 16 5 16 4 -1 -9 -11 -8 -26 -15 -33
-15 -19 0 -16 41 5 56 24 18 25 18 18 -12z m374 6 c0 -5 -11 -10 -25 -10 -14
0 -25 5 -25 10 0 6 11 10 25 10 14 0 25 -4 25 -10z m238 -37 c-10 -2 -26 -2
-35 0 -10 3 -2 5 17 5 19 0 27 -2 18 -5z m62 -3 c12 -8 11 -10 -7 -10 -12 0
-25 5 -28 10 -8 13 15 13 35 0z m-367 -7 c-7 -2 -21 -2 -30 0 -10 3 -4 5 12 5
17 0 24 -2 18 -5z m-3310 -28 c-3 -9 -8 -14 -10 -11 -3 3 -2 9 2 15 9 16 15
13 8 -4z m677 -197 c0 -16 -3 -19 -11 -11 -6 6 -8 16 -5 22 11 17 16 13 16
-11z m2697 -234 c-3 -3 -12 -4 -19 -1 -8 3 -5 6 6 6 11 1 17 -2 13 -5z m-3501
-86 c-3 -35 -7 -69 -8 -75 -2 -16 -44 -17 -53 -2 -10 16 3 70 25 107 31 51 43
41 36 -30z m3519 52 c3 -5 1 -10 -4 -10 -6 0 -11 5 -11 10 0 6 2 10 4 10 3 0
8 -4 11 -10z m115 -60 c0 -5 -4 -10 -10 -10 -5 0 -10 5 -10 10 0 6 5 10 10 10
6 0 10 -4 10 -10z"/>
<path d="M1790 1644 c0 -8 5 -12 10 -9 6 4 8 11 5 16 -9 14 -15 11 -15 -7z"/>
<path d="M2400 1510 c-13 -8 -12 -10 3 -10 9 0 17 5 17 10 0 12 -1 12 -20 0z"/>
<path d="M4526 4044 c-9 -22 3 -32 14 -14 12 19 12 30 1 30 -5 0 -12 -7 -15
-16z"/>
<path d="M4642 4044 c4 -21 22 -23 26 -1 2 10 -3 17 -13 17 -10 0 -15 -6 -13
-16z"/>
<path d="M4680 4050 c0 -5 4 -10 9 -10 6 0 13 5 16 10 3 6 -1 10 -9 10 -9 0
-16 -4 -16 -10z"/>
<path d="M4720 4049 c0 -5 5 -7 10 -4 6 3 10 8 10 11 0 2 -4 4 -10 4 -5 0 -10
-5 -10 -11z"/>
<path d="M4850 4050 c0 -5 7 -10 16 -10 8 0 12 5 9 10 -3 6 -10 10 -16 10 -5
0 -9 -4 -9 -10z"/>
<path d="M5238 4053 c7 -3 16 -2 19 1 4 3 -2 6 -13 5 -11 0 -14 -3 -6 -6z"/>
<path d="M5682 4045 c3 -3 32 -6 64 -6 52 -1 56 -3 39 -15 -10 -8 -14 -14 -8
-14 7 0 14 4 18 9 9 16 118 6 148 -14 15 -10 31 -14 35 -10 4 4 1 10 -6 12
-10 4 -9 9 4 24 17 19 14 19 -141 19 -87 0 -156 -2 -153 -5z"/>
<path d="M4675 4010 c3 -5 8 -10 11 -10 2 0 4 5 4 10 0 6 -5 10 -11 10 -5 0
-7 -4 -4 -10z"/>
<path d="M5905 3981 c-3 -5 -1 -12 5 -16 5 -3 10 1 10 9 0 18 -6 21 -15 7z"/>
<path d="M1375 3040 c4 -11 2 -20 -4 -20 -6 0 -3 -8 7 -18 24 -26 34 -13 20
26 -13 34 -34 45 -23 12z"/>
<path d="M1410 3042 c0 -5 7 -13 16 -16 10 -4 14 -1 12 6 -5 15 -28 23 -28 10z"/>
<path d="M1400 2930 c0 -7 24 -20 36 -20 13 0 1 19 -16 23 -11 3 -20 2 -20 -3z"/>
<path d="M1400 2884 c0 -14 3 -14 15 -4 8 7 15 14 15 16 0 2 -7 4 -15 4 -8 0
-15 -7 -15 -16z"/>
<path d="M5815 2750 c-10 -16 16 -43 28 -31 11 11 2 41 -12 41 -5 0 -13 -5
-16 -10z"/>
<path d="M3429 2703 c-7 -18 -6 -30 1 -37 7 -7 10 -4 11 10 0 18 1 18 8 -1 5
-11 25 -25 47 -32 26 -8 32 -12 17 -12 -35 -1 -27 -21 8 -21 31 0 32 -1 26
-41 -4 -33 -3 -39 10 -35 8 3 19 6 24 6 5 0 9 7 9 15 0 8 -7 15 -15 15 -8 0
-15 5 -15 11 0 6 6 9 13 6 9 -3 13 14 14 63 1 52 -2 70 -13 74 -17 6 -18 1 -4
-24 13 -24 -16 -52 -31 -29 -8 12 -11 11 -23 -3 -15 -20 -26 -14 -26 14 0 11
-4 16 -10 13 -5 -3 -10 3 -10 14 0 30 -29 26 -41 -6z"/>
<path d="M4850 2675 c0 -18 29 -32 58 -27 33 4 45 21 15 20 -10 0 -30 3 -45 7
-16 4 -28 4 -28 0z"/>
<path d="M3403 2623 c-27 -28 -28 -36 -8 -53 13 -10 15 -9 15 9 0 11 4 21 10
21 5 0 14 9 19 19 16 29 -10 32 -36 4z"/>
<path d="M3755 2631 c-3 -5 -1 -12 5 -16 5 -3 10 1 10 9 0 18 -6 21 -15 7z"/>
<path d="M3820 2625 c0 -8 5 -15 10 -15 6 0 10 7 10 15 0 8 -4 15 -10 15 -5 0
-10 -7 -10 -15z"/>
<path d="M3460 2620 c-13 -8 -12 -10 3 -10 9 0 17 5 17 10 0 12 -1 12 -20 0z"/>
<path d="M3461 2574 c0 -11 3 -14 6 -6 3 7 2 16 -1 19 -3 4 -6 -2 -5 -13z"/>
<path d="M3441 2563 c-1 -6 -4 -20 -7 -30 -5 -17 -5 -17 6 0 6 10 9 23 6 30
-3 9 -5 9 -5 0z"/>
<path d="M3732 2558 c2 -6 14 -15 26 -19 18 -7 22 -5 22 11 0 15 -7 20 -26 20
-15 0 -24 -5 -22 -12z"/>
<path d="M3560 2510 c0 -6 11 -10 25 -10 14 0 25 4 25 8 0 4 -11 9 -25 10 -14
1 -25 -3 -25 -8z"/>
<path d="M3640 2509 c0 -5 28 -9 63 -10 34 0 70 -2 80 -4 10 -2 17 3 17 11 0
12 -16 14 -80 13 -44 -1 -80 -5 -80 -10z"/>
<path d="M3562 2479 c2 -7 10 -15 17 -17 8 -3 12 1 9 9 -2 7 -10 15 -17 17 -8
3 -12 -1 -9 -9z"/>
<path d="M3620 2475 c0 -9 5 -15 11 -13 6 2 11 8 11 13 0 5 -5 11 -11 13 -6 2
-11 -4 -11 -13z"/>
<path d="M3686 2483 c-11 -11 -6 -23 9 -23 8 0 15 4 15 9 0 13 -16 22 -24 14z"/>
<path d="M3746 2481 c-4 -7 -5 -15 -2 -18 9 -9 19 4 14 18 -4 11 -6 11 -12 0z"/>
<path d="M3480 2450 c0 -5 5 -10 10 -10 6 0 10 5 10 10 0 6 -4 10 -10 10 -5 0
-10 -4 -10 -10z"/>
<path d="M3620 2440 c0 -5 5 -10 10 -10 6 0 10 5 10 10 0 6 -4 10 -10 10 -5 0
-10 -4 -10 -10z"/>
<path d="M3685 2440 c-3 -5 1 -10 9 -10 9 0 16 5 16 10 0 6 -4 10 -9 10 -6 0
-13 -4 -16 -10z"/>
<path d="M3750 2440 c0 -5 5 -10 11 -10 5 0 7 5 4 10 -3 6 -8 10 -11 10 -2 0
-4 -4 -4 -10z"/>
<path d="M3565 2400 c3 -5 8 -10 11 -10 2 0 4 5 4 10 0 6 -5 10 -11 10 -5 0
-7 -4 -4 -10z"/>
<path d="M3620 2395 c0 -8 5 -15 10 -15 6 0 10 7 10 15 0 8 -4 15 -10 15 -5 0
-10 -7 -10 -15z"/>
<path d="M3680 2395 c0 -8 5 -15 10 -15 6 0 10 7 10 15 0 8 -4 15 -10 15 -5 0
-10 -7 -10 -15z"/>
<path d="M3530 2261 c0 -6 10 -8 21 -6 33 6 36 15 6 15 -15 0 -27 -4 -27 -9z"/>
<path d="M3590 2260 c0 -5 7 -10 15 -10 8 0 15 5 15 10 0 6 -7 10 -15 10 -8 0
-15 -4 -15 -10z"/>
<path d="M1515 2180 c4 -6 11 -8 16 -5 14 9 11 15 -7 15 -8 0 -12 -5 -9 -10z"/>
<path d="M44 2075 c-18 -14 -17 -14 15 -15 29 0 32 2 21 15 -15 18 -12 18 -36
0z"/>
<path d="M12 2040 c3 -25 33 -36 33 -12 0 6 -4 12 -9 11 -5 0 -13 5 -18 13 -6
9 -8 6 -6 -12z"/>
<path d="M126 2052 c-3 -6 -1 -14 5 -17 15 -10 25 3 12 16 -7 7 -13 7 -17 1z"/>
<path d="M60 2030 c0 -5 5 -10 11 -10 5 0 7 5 4 10 -3 6 -8 10 -11 10 -2 0 -4
-4 -4 -10z"/>
<path d="M1710 2020 c0 -5 5 -10 10 -10 6 0 10 5 10 10 0 6 -4 10 -10 10 -5 0
-10 -4 -10 -10z"/>
<path d="M180 2000 c0 -5 5 -10 10 -10 6 0 10 5 10 10 0 6 -4 10 -10 10 -5 0
-10 -4 -10 -10z"/>
<path d="M4146 1993 c-9 -9 -7 -33 3 -33 12 0 22 28 12 34 -5 3 -11 3 -15 -1z"/>
<path d="M4020 1955 c-25 -19 -51 -35 -57 -35 -7 0 -13 -4 -13 -10 0 -16 63 2
82 24 19 22 41 56 36 56 -2 0 -23 -16 -48 -35z"/>
<path d="M4193 1983 c9 -2 25 -2 35 0 9 3 1 5 -18 5 -19 0 -27 -2 -17 -5z"/>
<path d="M4278 1983 c7 -3 16 -2 19 1 4 3 -2 6 -13 5 -11 0 -14 -3 -6 -6z"/>
<path d="M4545 1980 c-4 -6 3 -10 14 -10 25 0 27 6 6 13 -8 4 -17 2 -20 -3z"/>
<path d="M10 1966 c0 -9 30 -14 35 -6 4 6 -3 10 -14 10 -12 0 -21 -2 -21 -4z"/>
<path d="M4063 1938 c-2 -5 10 -8 26 -8 17 0 31 3 31 8 0 4 -12 7 -26 7 -14 0
-28 -3 -31 -7z"/>
<path d="M4243 1939 c14 -8 22 -8 30 0 8 8 3 11 -18 11 -26 -1 -28 -2 -12 -11z"/>
<path d="M4500 1935 c27 -14 36 -13 25 4 -3 6 -16 11 -28 11 -21 -1 -21 -1 3
-15z"/>
<path d="M4570 1930 c-8 -5 -12 -12 -9 -15 4 -3 12 1 19 10 14 17 11 19 -10 5z"/>
<path d="M4070 1900 c0 -5 9 -10 21 -10 11 0 17 5 14 10 -3 6 -13 10 -21 10
-8 0 -14 -4 -14 -10z"/>
<path d="M3948 1860 c-20 -22 -41 -40 -47 -40 -7 0 -9 -4 -6 -10 9 -14 69 28
83 58 18 39 8 36 -30 -8z"/>
<path d="M4000 1853 c0 -4 5 -15 10 -23 8 -13 10 -13 10 2 0 9 -4 20 -10 23
-5 3 -10 3 -10 -2z"/>
<path d="M4195 1850 c-19 -8 -19 -9 3 -9 12 -1 22 4 22 9 0 6 -1 10 -2 9 -2 0
-12 -4 -23 -9z"/>
<path d="M4270 1850 c0 -5 5 -10 10 -10 6 0 10 5 10 10 0 6 -4 10 -10 10 -5 0
-10 -4 -10 -10z"/>
<path d="M3790 1825 c0 -9 -6 -15 -12 -13 -14 5 -21 -1 -56 -46 -25 -33 -28
-52 -9 -59 9 -3 13 3 13 17 -1 15 4 20 17 18 9 -2 16 1 15 5 -2 4 1 9 6 10 5
0 13 8 18 17 5 9 13 14 19 11 5 -4 9 5 9 19 0 14 -4 28 -10 31 -5 3 -10 -1
-10 -10z"/>
<path d="M3735 1820 c3 -5 8 -10 11 -10 2 0 4 5 4 10 0 6 -5 10 -11 10 -5 0
-7 -4 -4 -10z"/>
<path d="M3692 1790 c0 -19 2 -27 5 -17 2 9 2 25 0 35 -3 9 -5 1 -5 -18z"/>
<path d="M3850 1770 c-14 -17 -31 -28 -38 -25 -7 3 -11 1 -8 -4 3 -5 -13 -29
-37 -55 l-43 -45 -137 1 c-75 1 -140 -1 -143 -5 -4 -3 -15 -2 -25 3 -11 6 -20
6 -24 1 -3 -5 4 -12 15 -16 11 -3 20 -13 20 -21 0 -8 10 -14 25 -14 14 0 25 4
25 8 0 5 24 9 53 9 28 1 44 -1 34 -4 -38 -10 -2 -23 68 -23 89 0 113 19 28 22
l-58 2 55 3 c30 2 71 11 90 21 47 23 46 22 30 32 -13 8 -12 10 3 10 10 0 17 8
17 20 0 14 7 20 21 20 15 0 19 5 15 15 -3 9 0 15 9 15 7 0 17 9 20 20 3 11 11
20 16 20 5 0 9 5 9 10 0 18 -15 11 -40 -20z"/>
<path d="M3968 1793 c7 -3 16 -2 19 1 4 3 -2 6 -13 5 -11 0 -14 -3 -6 -6z"/>
<path d="M595 1730 c3 -5 8 -10 11 -10 2 0 4 5 4 10 0 6 -5 10 -11 10 -5 0 -7
-4 -4 -10z"/>
<path d="M748 1713 c7 -3 16 -2 19 1 4 3 -2 6 -13 5 -11 0 -14 -3 -6 -6z"/>
<path d="M4368 1653 c7 -3 16 -2 19 1 4 3 -2 6 -13 5 -11 0 -14 -3 -6 -6z"/>
<path d="M3735 1590 c3 -5 10 -10 16 -10 5 0 9 5 9 10 0 6 -7 10 -16 10 -8 0
-12 -4 -9 -10z"/>
<path d="M3870 1590 c0 -5 6 -10 14 -10 8 0 18 5 21 10 3 6 -3 10 -14 10 -12
0 -21 -4 -21 -10z"/>
<path d="M3945 1590 c-3 -5 1 -10 10 -10 9 0 13 5 10 10 -3 6 -8 10 -10 10 -2
0 -7 -4 -10 -10z"/>
<path d="M4058 1583 c7 -3 16 -2 19 1 4 3 -2 6 -13 5 -11 0 -14 -3 -6 -6z"/>
<path d="M53 1513 c-7 -3 -13 -16 -13 -29 0 -14 -7 -36 -17 -50 -20 -31 -19
-98 2 -130 13 -20 16 -60 14 -176 0 -10 -7 -18 -15 -18 -20 0 -18 -13 6 -33
11 -9 20 -23 20 -31 0 -21 21 -31 30 -16 5 8 6 43 3 79 -4 58 -3 63 11 52 13
-11 16 -11 16 2 0 8 -7 17 -15 21 -8 3 -15 15 -15 28 0 21 0 21 15 2 14 -18
14 -17 15 13 0 22 -4 31 -13 27 -7 -2 -13 4 -14 16 -2 21 16 29 18 8 1 -7 5 3
8 22 4 19 4 37 1 40 -3 3 -5 34 -5 70 0 52 -4 70 -20 86 -11 12 -26 19 -32 17z
m47 -187 c0 -8 -4 -18 -10 -21 -5 -3 -10 3 -10 14 0 12 5 21 10 21 6 0 10 -6
10 -14z"/>
<path d="M120 1506 c0 -9 5 -16 10 -16 6 0 10 4 10 9 0 6 -4 13 -10 16 -5 3
-10 -1 -10 -9z"/>
<path d="M3828 1493 c7 -3 16 -2 19 1 4 3 -2 6 -13 5 -11 0 -14 -3 -6 -6z"/>
<path d="M4008 1493 c7 -3 16 -2 19 1 4 3 -2 6 -13 5 -11 0 -14 -3 -6 -6z"/>
<path d="M4220 1486 c0 -2 9 -6 20 -9 11 -3 20 -1 20 4 0 5 -9 9 -20 9 -11 0
-20 -2 -20 -4z"/>
<path d="M3630 1450 c0 -5 7 -10 15 -10 8 0 15 5 15 10 0 6 -7 10 -15 10 -8 0
-15 -4 -15 -10z"/>
<path d="M4080 1451 c0 -5 5 -13 10 -16 6 -3 10 -2 10 4 0 5 -4 13 -10 16 -5
3 -10 2 -10 -4z"/>
<path d="M2988 1416 c-2 -21 1 -37 7 -40 8 -3 11 8 11 29 -2 47 -13 53 -18 11z"/>
<path d="M3433 1408 c17 -9 105 -13 113 -5 8 8 5 8 -73 10 -28 1 -46 -1 -40
-5z"/>
<path d="M3055 1391 c-3 -5 -1 -12 5 -16 5 -3 10 1 10 9 0 18 -6 21 -15 7z"/>
<path d="M3028 1353 c-10 -2 -18 -11 -18 -19 0 -11 4 -10 20 3 17 15 26 26 18
22 -2 -1 -11 -3 -20 -6z"/>
<path d="M2982 1315 c0 -16 2 -22 5 -12 2 9 2 23 0 30 -3 6 -5 -1 -5 -18z"/>
<path d="M3488 1303 c6 -2 18 -2 25 0 6 3 1 5 -13 5 -14 0 -19 -2 -12 -5z"/>
<path d="M3920 1281 c0 -9 41 -23 48 -16 2 2 1 8 -3 14 -8 13 -45 15 -45 2z"/>
<path d="M3980 1286 c0 -2 11 -6 25 -8 14 -3 25 -1 25 3 0 5 -11 9 -25 9 -14
0 -25 -2 -25 -4z"/>
<path d="M4090 1279 c0 -4 39 -7 86 -8 47 0 83 3 80 7 -9 9 -166 10 -166 1z"/>
<path d="M4275 1280 c-8 -13 9 -20 24 -11 10 6 9 10 -3 14 -8 3 -18 2 -21 -3z"/>
<path d="M4325 1270 c4 -6 11 -8 16 -5 14 9 11 15 -7 15 -8 0 -12 -5 -9 -10z"/>
<path d="M2996 1214 c-9 -24 -7 -28 9 -14 17 14 20 30 6 30 -5 0 -12 -7 -15
-16z"/>
<path d="M2865 1210 c-3 -5 -1 -10 4 -10 6 0 11 5 11 10 0 6 -2 10 -4 10 -3 0
-8 -4 -11 -10z"/>
<path d="M3198 1213 c6 -2 18 -2 25 0 6 3 1 5 -13 5 -14 0 -19 -2 -12 -5z"/>
<path d="M3368 1203 c7 -3 16 -2 19 1 4 3 -2 6 -13 5 -11 0 -14 -3 -6 -6z"/>
<path d="M3493 1199 c14 -8 22 -8 30 0 8 8 3 11 -18 11 -26 -1 -28 -2 -12 -11z"/>
<path d="M3903 1183 c9 -2 25 -2 35 0 9 3 1 5 -18 5 -19 0 -27 -2 -17 -5z"/>
<path d="M4150 1176 c0 -8 51 -13 56 -5 3 5 -9 9 -25 9 -17 0 -31 -2 -31 -4z"/>
<path d="M4228 1173 c7 -3 16 -2 19 1 4 3 -2 6 -13 5 -11 0 -14 -3 -6 -6z"/>
<path d="M4270 1170 c0 -5 7 -7 15 -4 8 4 15 8 15 10 0 2 -7 4 -15 4 -8 0 -15
-4 -15 -10z"/>
<path d="M4333 1173 c9 -2 23 -2 30 0 6 3 -1 5 -18 5 -16 0 -22 -2 -12 -5z"/>
<path d="M4386 1162 c-2 -4 -1 -14 5 -22 7 -12 9 -10 9 8 0 23 -5 28 -14 14z"/>
<path d="M90 1120 c0 -5 5 -10 10 -10 6 0 10 5 10 10 0 6 -4 10 -10 10 -5 0
-10 -4 -10 -10z"/>
<path d="M4090 1120 c0 -5 5 -10 11 -10 5 0 7 5 4 10 -3 6 -8 10 -11 10 -2 0
-4 -4 -4 -10z"/>
<path d="M4263 1103 c9 -2 25 -2 35 0 9 3 1 5 -18 5 -19 0 -27 -2 -17 -5z"/>
<path d="M4360 1106 c0 -2 7 -9 15 -16 12 -10 15 -10 15 4 0 9 -7 16 -15 16
-8 0 -15 -2 -15 -4z"/>
<path d="M4530 1100 c0 -5 5 -10 11 -10 5 0 7 5 4 10 -3 6 -8 10 -11 10 -2 0
-4 -4 -4 -10z"/>
<path d="M5618 1095 c-3 -4 -57 -7 -120 -6 -94 0 -251 -13 -403 -33 -76 -10
-142 -28 -183 -51 -24 -14 -56 -25 -71 -25 l-26 0 25 -13 c14 -7 26 -21 28
-32 5 -26 30 -53 64 -71 42 -22 46 -16 11 12 -18 14 -33 30 -33 36 0 6 6 6 15
-2 13 -11 14 -10 8 5 -5 15 -3 17 11 12 12 -5 15 -3 10 6 -5 9 -4 9 6 0 11
-10 11 -15 -1 -29 -12 -16 -10 -15 21 2 19 10 38 23 41 27 3 4 16 4 30 -2 l24
-9 -27 -12 c-41 -19 -24 -30 48 -30 53 0 64 -3 64 -16 0 -9 8 -22 17 -29 15
-11 19 -9 28 9 7 14 27 25 59 33 27 7 51 14 53 17 9 9 43 -14 43 -29 0 -8 6
-15 14 -15 13 0 13 4 0 28 -14 27 -20 76 -6 56 4 -6 15 -13 24 -17 9 -3 18
-18 21 -34 l4 -28 2 27 c1 20 5 25 19 21 14 -3 18 -11 14 -31 -6 -33 -36 -55
-81 -62 -19 -3 -36 -10 -38 -17 -5 -13 31 -22 106 -25 43 -1 55 -6 59 -20 4
-16 21 -22 60 -21 6 1 12 -3 12 -8 0 -5 6 -9 14 -9 11 0 14 12 12 45 -1 25 -2
45 -1 45 2 0 28 -11 58 -25 31 -13 86 -27 122 -31 36 -4 65 -11 65 -17 0 -5 9
-7 19 -4 12 3 18 0 15 -7 -2 -6 0 -16 4 -22 10 -15 109 -27 117 -14 4 6 -13
10 -47 11 l-53 1 40 9 c21 5 45 7 52 5 10 -4 13 35 13 183 l-1 189 -62 6
c-120 11 -312 18 -319 11z m-298 -80 c20 -24 4 -29 -19 -6 -14 14 -17 21 -7
21 7 0 19 -7 26 -15z m-20 -27 c0 -21 -9 -22 -45 -6 -34 15 -31 23 10 24 27 0
35 -3 35 -18z m193 15 c-7 -2 -19 -2 -25 0 -7 3 -2 5 12 5 14 0 19 -2 13 -5z
m-147 -60 c-10 -10 -19 5 -10 18 6 11 8 11 12 0 2 -7 1 -15 -2 -18z m-391 7
c-3 -5 -10 -10 -16 -10 -5 0 -9 5 -9 10 0 6 7 10 16 10 8 0 12 -4 9 -10z m515
5 c0 -2 -9 -9 -20 -15 -12 -6 -20 -7 -20 -1 0 5 8 12 18 14 9 3 18 5 20 6 1 0
2 -1 2 -4z"/>
<path d="M1185 1080 c3 -5 8 -10 11 -10 2 0 4 5 4 10 0 6 -5 10 -11 10 -5 0
-7 -4 -4 -10z"/>
<path d="M461 1048 c-67 -12 -73 -18 -11 -11 30 3 57 7 59 9 10 9 -7 10 -48 2z"/>
<path d="M1480 1045 c-47 -7 -88 -10 -92 -8 -5 2 -8 0 -8 -6 0 -6 -12 -8 -30
-4 -19 3 -30 1 -30 -5 0 -7 -8 -8 -21 -4 -12 5 -46 5 -77 1 -31 -4 -60 -5 -65
-2 -6 3 -8 2 -5 -3 4 -5 -23 -9 -59 -10 -35 0 -68 -5 -71 -11 -4 -6 -24 -14
-44 -18 -31 -6 -35 -10 -26 -24 7 -12 20 -16 47 -12 34 4 34 5 11 12 -17 5 -5
7 38 6 53 -2 62 0 62 16 0 21 18 23 26 2 8 -19 24 -20 24 -1 0 15 21 26 51 26
12 0 19 -7 19 -20 0 -17 6 -20 38 -19 30 2 32 3 10 6 -16 2 -28 10 -28 18 0
17 43 32 48 17 1 -5 22 -8 47 -6 39 4 45 2 45 -15 0 -17 7 -20 53 -20 54 0
115 14 132 31 7 7 -7 8 -40 3 -27 -4 -53 -12 -56 -17 -4 -7 -9 -6 -13 1 -4 6
-20 8 -36 4 -18 -3 -30 -1 -30 5 0 5 17 13 38 16 87 15 95 18 81 27 -10 6 -2
9 23 9 20 0 40 5 43 10 7 12 7 12 -105 -5z m-390 -55 c0 -5 -15 -9 -32 -9
l-33 1 30 8 c17 4 31 8 33 9 1 0 2 -3 2 -9z"/>
<path d="M688 1043 c7 -3 16 -2 19 1 4 3 -2 6 -13 5 -11 0 -14 -3 -6 -6z"/>
<path d="M1685 1040 c-3 -5 1 -10 9 -10 9 0 16 5 16 10 0 6 -4 10 -9 10 -6 0
-13 -4 -16 -10z"/>
<path d="M1660 1008 c0 -4 14 -8 30 -8 17 0 30 4 30 9 0 5 -13 9 -30 9 -16 -1
-30 -5 -30 -10z"/>
<path d="M908 993 c7 -3 16 -2 19 1 4 3 -2 6 -13 5 -11 0 -14 -3 -6 -6z"/>
<path d="M973 993 c9 -2 23 -2 30 0 6 3 -1 5 -18 5 -16 0 -22 -2 -12 -5z"/>
<path d="M710 965 c0 -18 -16 -20 -26 -4 -5 8 -8 8 -13 0 -4 -6 -28 -13 -54
-16 -26 -2 -55 -9 -65 -15 -22 -13 121 -4 146 9 11 6 24 5 35 -1 20 -11 47 -4
47 11 0 6 -13 8 -30 4 -25 -5 -29 -3 -24 11 3 9 1 16 -5 16 -6 0 -11 -7 -11
-15z"/>
<path d="M1335 970 c3 -5 8 -10 11 -10 2 0 4 5 4 10 0 6 -5 10 -11 10 -5 0 -7
-4 -4 -10z"/>
<path d="M845 960 c-8 -13 5 -13 25 0 13 8 13 10 -2 10 -9 0 -20 -4 -23 -10z"/>
<path d="M890 960 c0 -5 4 -10 9 -10 6 0 13 5 16 10 3 6 -1 10 -9 10 -9 0 -16
-4 -16 -10z"/>
<path d="M435 929 c-11 -4 -32 -8 -47 -8 -16 -1 -28 -6 -28 -12 0 -12 83 -4
109 10 20 12 -9 20 -34 10z"/>
<path d="M53 923 c-21 -8 -15 -22 7 -16 11 3 20 9 20 14 0 10 -8 10 -27 2z"/>
<path d="M225 921 c-3 -6 -17 -8 -32 -5 -18 5 -24 3 -19 -5 4 -6 15 -11 24
-11 22 0 48 17 40 25 -3 4 -9 2 -13 -4z"/>
<path d="M4988 833 c7 -3 16 -2 19 1 4 3 -2 6 -13 5 -11 0 -14 -3 -6 -6z"/>
<path d="M5610 710 c0 -5 5 -10 10 -10 6 0 10 5 10 10 0 6 -4 10 -10 10 -5 0
-10 -4 -10 -10z"/>
<path d="M5795 690 c-3 -5 3 -10 14 -10 10 0 22 -6 24 -12 4 -8 6 -7 6 3 1 9
-6 20 -15 23 -21 8 -22 8 -29 -4z"/>
<path d="M5587 638 c-3 -11 0 -18 10 -18 8 0 11 5 8 10 -3 6 1 10 9 10 9 0 16
-4 16 -9 0 -5 10 -7 23 -4 16 3 18 2 8 -5 -7 -5 -10 -15 -7 -21 11 -18 26 -13
26 9 0 15 7 20 25 20 44 0 27 20 -17 21 -24 0 -55 2 -70 3 -18 1 -28 -4 -31
-16z"/>
<path d="M5177 621 c-17 -6 -18 -8 -3 -21 13 -10 20 -10 28 -2 16 16 -2 32
-25 23z"/>
<path d="M5828 623 c12 -2 30 -2 40 0 9 3 -1 5 -23 4 -22 0 -30 -2 -17 -4z"/>
<path d="M5195 560 c11 -5 27 -9 35 -9 13 -1 13 0 0 9 -8 5 -24 9 -35 9 l-20
0 20 -9z"/>
<path d="M5585 481 c39 -16 87 -21 83 -10 -2 6 -26 13 -53 15 -33 2 -43 0 -30
-5z"/>
<path d="M5074 106 c-3 -9 -11 -13 -17 -9 -6 4 -21 8 -34 9 -19 2 -21 0 -14
-15 8 -13 23 -18 60 -18 56 -1 61 5 31 32 -18 16 -20 16 -26 1z"/>
<path d="M5444 105 c-13 -33 2 -42 76 -42 59 0 70 3 68 16 -5 23 -68 33 -95
15 -30 -19 -36 -18 -30 6 6 23 -11 27 -19 5z"/>
<path d="M5130 91 c0 -16 6 -21 25 -21 16 0 25 6 25 15 0 8 -4 15 -9 15 -5 0
-16 3 -25 6 -12 4 -16 0 -16 -15z"/>
<path d="M5653 91 c-6 -25 -16 -27 -33 -6 -15 19 -23 14 -14 -9 4 -12 19 -16
53 -16 28 0 41 4 33 9 -7 4 -12 14 -10 21 5 22 -23 23 -29 1z"/>
<path d="M5302 83 c2 -10 12 -19 23 -21 18 -3 19 -2 2 8 -9 6 -15 15 -12 21 4
5 1 9 -5 9 -6 0 -10 -8 -8 -17z"/>
<path d="M5360 90 c-17 -11 -7 -23 20 -25 23 -2 22 -2 14 19 -7 18 -13 19 -34
6z"/>
<path d="M5200 79 c0 -6 6 -9 14 -6 7 3 19 0 25 -6 8 -8 11 -7 11 6 0 11 -8
17 -25 17 -14 0 -25 -5 -25 -11z"/>
</g>
</svg>
